<svg width="235" height="175" viewBox="0 0 235 175" fill="none" xmlns="http://www.w3.org/2000/svg">
<path d="M99.8567 148.852C100.75 149.684 101.73 150.372 102.701 150.937C103.188 151.221 103.672 151.471 104.147 151.686C104.623 151.887 105.087 152.041 105.531 152.156C105.276 151.02 104.989 149.899 104.677 148.792C104.365 147.671 104.024 146.555 103.655 145.46C103.285 144.365 102.887 143.281 102.46 142.217C102.211 141.594 101.953 140.966 101.687 140.344C101.498 139.899 101.306 139.455 101.105 139.019C100.808 138.362 100.487 137.723 100.16 137.098C99.8338 136.467 99.5044 135.833 99.175 135.196C102.317 140.103 105.055 145.492 107.043 151.281C107.043 151.281 107.043 151.281 107.043 151.284C107.069 151.359 107.097 151.431 107.12 151.502C107.241 151.27 107.349 151.035 107.45 150.794C108.945 147.198 108.292 142.75 106.596 138.942C106.164 137.995 105.576 136.963 104.883 135.965C104.537 135.463 104.164 134.97 103.769 134.488C103.377 134.003 102.967 133.502 102.54 133.037C102.114 132.567 101.675 132.117 101.223 131.695C100.773 131.259 100.315 130.835 99.8481 130.453C99.3812 130.063 98.9029 129.733 98.4246 129.401C97.9463 129.068 97.4651 128.779 96.9782 128.538C96.9008 128.667 96.8292 128.804 96.7576 128.936C95.7122 130.826 95.0592 133.103 94.8701 135.503C94.6697 138.064 94.9933 140.806 95.8783 143.266C96.5801 145.216 98.0522 147.255 99.8567 148.858V148.852Z" fill="#334251"/>
<path d="M77.3414 137.287C77.4817 138.259 77.7939 139.283 78.2407 140.31C78.6875 141.328 79.2862 142.303 79.9564 143.238C80.6237 144.181 81.3971 145.004 82.1847 145.721C82.58 146.079 82.9781 146.406 83.3762 146.696C83.6569 146.897 83.9376 147.069 84.2125 147.221C84.2125 147.221 84.2154 147.221 84.2183 147.221C84.3328 147.284 84.4474 147.347 84.562 147.404C84.5505 146.306 84.5076 145.216 84.4359 144.129C84.3701 143.028 84.2698 141.936 84.1438 140.849C84.0149 139.762 83.8574 138.684 83.6655 137.614C83.6025 137.253 83.5337 136.888 83.4621 136.524C83.3275 135.81 83.1843 135.093 83.021 134.388C82.7174 133.051 82.3193 131.781 81.947 130.47C83.9691 135.664 85.4642 141.239 86.1487 147.023C86.1516 147.054 86.1573 147.083 86.1602 147.115C88.6606 144.072 89.0444 139.53 88.1508 135.414C87.9331 134.454 87.5865 133.378 87.134 132.317C86.6786 131.256 86.1201 130.195 85.5071 129.143C84.8885 128.105 84.1954 127.132 83.4736 126.215C83.107 125.765 82.7289 125.343 82.3336 124.962C81.947 124.566 81.5517 124.193 81.1393 123.872C81.0333 123.987 80.9331 124.11 80.8299 124.23C79.5124 125.767 78.487 127.738 77.8655 129.911C77.5304 131.084 77.3099 132.314 77.2154 133.562C77.1695 134.187 77.1523 134.815 77.1695 135.443C77.1924 136.062 77.2469 136.679 77.3356 137.29L77.3414 137.287Z" fill="#334251"/>
<path d="M183.147 127.385C183.31 127.488 183.476 127.588 183.648 127.677C183.539 127.299 183.439 126.917 183.342 126.536C183.316 126.438 183.293 126.344 183.267 126.246C183.184 125.917 183.104 125.587 183.027 125.254C183.015 125.205 183.004 125.154 182.992 125.105C182.419 122.587 182.033 120.038 181.818 117.5C181.812 117.474 181.809 117.445 181.804 117.419C181.669 115.814 181.603 114.208 181.603 112.619C181.721 113.823 181.804 115.005 181.99 116.204C182.139 117.164 182.316 118.119 182.523 119.071C182.726 120.021 182.944 120.947 183.201 121.879C183.703 123.714 184.324 125.538 185.037 127.319C185.046 127.339 185.055 127.362 185.063 127.382C185.559 126.797 186.02 126.04 186.429 125.194C186.633 124.769 186.827 124.328 186.996 123.863C187.16 123.39 187.303 122.905 187.426 122.412C187.667 121.423 187.838 120.428 187.87 119.441C187.899 118.455 187.821 117.506 187.621 116.66C187.128 114.543 186.114 112.476 184.802 110.766C183.494 109.057 181.881 107.692 180.154 106.889C180.082 107.021 180.014 107.156 179.942 107.288C179.564 108.013 179.22 108.785 178.957 109.631C178.65 110.64 178.387 111.681 178.209 112.748C178.12 113.281 178.054 113.821 178.009 114.36C177.96 114.893 177.917 115.409 177.903 115.925C177.874 116.952 177.931 117.939 178.089 118.819C178.687 122.295 180.363 125.641 183.144 127.385H183.147Z" fill="#334251"/>
<path d="M167.612 138.896C167.572 138.44 167.54 137.987 167.511 137.534C167.506 137.428 167.5 137.321 167.491 137.212C167.466 136.771 167.446 136.326 167.431 135.885C167.431 135.876 167.431 135.87 167.431 135.862C167.417 135.394 167.408 134.927 167.405 134.459C167.405 134.385 167.405 134.307 167.405 134.233C167.405 133.289 167.423 132.352 167.466 131.414C167.466 131.377 167.468 131.339 167.471 131.299C167.517 130.33 167.586 129.369 167.678 128.409C167.678 128.409 167.678 128.406 167.678 128.403C167.723 127.912 167.775 127.425 167.832 126.937C167.998 125.521 168.21 124.116 168.462 122.725C168.331 123.978 168.205 125.248 168.17 126.547C168.03 130.668 168.368 134.798 169.141 138.85C170.158 138.07 171.16 136.802 171.994 135.357C172.002 135.343 172.011 135.325 172.02 135.311C172.12 135.139 172.214 134.961 172.309 134.783C172.326 134.752 172.34 134.723 172.358 134.692C172.449 134.514 172.541 134.333 172.63 134.153C173.518 132.16 174.073 130.04 173.959 128.159C173.741 123.49 171.335 118.807 168.044 116.459C167.388 117.207 166.792 118.085 166.283 119.074C165.753 120.035 165.289 121.079 164.908 122.171C164.115 124.299 163.633 126.596 163.585 128.463C163.527 132.461 164.725 136.539 167.617 138.89L167.612 138.896Z" fill="#334251"/>
<path d="M192.642 111.601C193.607 112.696 194.755 113.577 196.062 114.11C196.259 114.19 196.457 114.262 196.663 114.328C195.606 112.186 194.675 109.926 193.971 107.684C193.796 107.116 193.618 106.537 193.449 105.957C193.449 105.957 193.449 105.957 193.449 105.954C193.286 105.392 193.131 104.824 192.997 104.265C192.71 103.115 192.496 101.983 192.272 100.813C192.576 101.908 192.848 102.983 193.212 104.056C194.406 107.512 195.944 110.735 197.903 113.806C198.424 112.866 198.857 111.618 199.086 110.247C199.161 109.791 199.215 109.321 199.241 108.845C199.298 107.896 199.292 106.952 199.158 106.04C199.023 105.126 198.797 104.268 198.47 103.52C198.367 103.285 198.261 103.055 198.147 102.826C197.803 102.14 197.405 101.478 196.961 100.853C196.354 100.012 195.669 99.2382 194.927 98.5586C193.447 97.1964 191.742 96.207 190.024 95.7625C189.981 95.8944 189.938 96.0292 189.895 96.1611C189.66 96.901 189.454 97.6753 189.351 98.5098C189.23 99.4992 189.159 100.509 189.165 101.524C189.21 103.571 189.471 105.573 190.052 107.142C190.674 108.805 191.53 110.336 192.645 111.601H192.642Z" fill="#334251"/>
<path d="M65.856 138.856C65.9477 138.368 66.0365 137.881 66.1167 137.393C66.1539 137.169 66.1854 136.949 66.2169 136.725C66.257 136.464 66.2971 136.206 66.3343 135.945C66.3773 135.638 66.4117 135.331 66.4489 135.024C66.469 134.852 66.4919 134.68 66.5119 134.508C66.552 134.147 66.5864 133.783 66.6208 133.421C66.6322 133.309 66.6437 133.198 66.6523 133.083C66.6866 132.679 66.7153 132.274 66.7411 131.867C66.7439 131.801 66.7496 131.732 66.7554 131.666C66.7812 131.228 66.8012 130.792 66.8184 130.353C66.8184 130.321 66.8184 130.287 66.8213 130.255C66.8384 129.794 66.847 129.332 66.8499 128.87C66.8499 128.862 66.8499 128.853 66.8499 128.844C66.8556 128.079 66.8499 127.316 66.827 126.55C66.7897 125.251 66.6666 123.978 66.5348 122.728C67.48 127.961 67.8695 133.373 67.3826 138.893C67.5402 138.764 67.692 138.629 67.8409 138.489C67.8409 138.489 67.8409 138.489 67.8438 138.486C67.9755 138.362 68.1044 138.23 68.2276 138.099C68.2562 138.067 68.2877 138.038 68.3164 138.01C68.4309 137.883 68.5398 137.754 68.6486 137.623C68.683 137.58 68.7202 137.539 68.7517 137.496C68.852 137.37 68.9493 137.238 69.0439 137.106C69.0811 137.055 69.1183 137.006 69.1527 136.954C69.2415 136.825 69.3274 136.693 69.4105 136.559C69.4477 136.498 69.4849 136.441 69.5193 136.381C69.5966 136.249 69.6711 136.117 69.7456 135.982C69.7828 135.916 69.8172 135.85 69.8516 135.781C69.9203 135.65 69.9862 135.515 70.0492 135.38C70.0835 135.305 70.1179 135.231 70.1523 135.156C70.2124 135.024 70.2669 134.89 70.3241 134.755C70.3556 134.675 70.39 134.591 70.4215 134.508C70.4731 134.376 70.5218 134.241 70.5676 134.107C70.5991 134.018 70.6277 133.929 70.6564 133.837C70.6993 133.705 70.7394 133.576 70.7767 133.441C70.8053 133.344 70.8311 133.246 70.8569 133.146C70.8913 133.017 70.9256 132.888 70.9571 132.759C70.9829 132.653 71.0058 132.547 71.0287 132.441C71.0545 132.314 71.0831 132.191 71.1061 132.065C71.129 131.95 71.1462 131.833 71.1662 131.718C71.1863 131.597 71.2063 131.48 71.2264 131.359C71.2435 131.233 71.2607 131.107 71.275 130.981C71.2894 130.869 71.3037 130.757 71.3151 130.645C71.3295 130.505 71.3409 130.367 71.3524 130.227C71.361 130.126 71.3696 130.023 71.3782 129.923C71.3896 129.762 71.3953 129.599 71.4011 129.438C71.4039 129.358 71.4097 129.277 71.4125 129.194C71.4183 128.951 71.4211 128.707 71.4154 128.463C71.3667 126.596 70.8855 124.299 70.0921 122.171C69.7141 121.079 69.2472 120.035 68.7173 119.074C68.2075 118.085 67.6118 117.207 66.9559 116.459C66.784 116.582 66.615 116.714 66.4489 116.849C66.3802 116.903 66.3114 116.961 66.2456 117.018C66.1711 117.084 66.0966 117.15 66.0221 117.216C65.8388 117.379 65.6613 117.551 65.4837 117.729C65.4751 117.738 65.4694 117.744 65.4608 117.752C65.4608 117.752 65.4636 117.749 65.4665 117.746C62.9603 120.296 61.2218 124.23 61.0413 128.159C60.9239 130.04 61.4824 132.16 62.3703 134.153C63.2955 136.083 64.5643 137.858 65.856 138.85V138.856Z" fill="#334251"/>
<path d="M47.5711 122.412C47.6943 122.905 47.8375 123.39 48.0008 123.863C48.1697 124.328 48.3645 124.769 48.5679 125.194C48.9803 126.037 49.4414 126.797 49.9341 127.382C50.6587 125.581 51.2888 123.737 51.7958 121.879C52.0507 120.947 52.2712 120.021 52.4746 119.071C52.5662 118.653 52.6493 118.234 52.7295 117.812C52.8326 117.276 52.9271 116.74 53.0102 116.201C53.1964 115.002 53.2794 113.821 53.3969 112.616C53.3969 117.606 52.7524 122.719 51.3518 127.677C52.0478 127.307 52.6808 126.834 53.2508 126.289C53.8551 125.713 54.385 125.053 54.849 124.331C54.8605 124.313 54.8719 124.293 54.8834 124.276C55.1526 123.849 55.3989 123.404 55.6195 122.943C55.6223 122.937 55.6252 122.931 55.6281 122.923C55.6853 122.802 55.7398 122.679 55.7942 122.553C55.8228 122.487 55.8515 122.421 55.8801 122.355C55.9259 122.243 55.9746 122.131 56.0176 122.016C56.052 121.93 56.0835 121.844 56.1178 121.755C56.1551 121.655 56.1952 121.555 56.2295 121.451C56.2925 121.271 56.3527 121.09 56.4071 120.909C56.43 120.835 56.4501 120.76 56.473 120.686C56.5102 120.554 56.5475 120.425 56.5847 120.293C56.6047 120.216 56.6248 120.135 56.6448 120.058C56.6792 119.92 56.7107 119.782 56.7422 119.645C56.7565 119.576 56.7737 119.507 56.788 119.438C56.831 119.232 56.8711 119.025 56.9083 118.819C57.063 117.939 57.1231 116.952 57.0945 115.925C57.0802 115.409 57.0372 114.896 56.9885 114.36C56.9427 113.823 56.8768 113.284 56.788 112.748C56.6105 111.681 56.347 110.64 56.0434 109.631C55.7283 108.63 55.3073 107.724 54.8461 106.889C54.6514 106.978 54.4595 107.079 54.2704 107.185C54.2103 107.216 54.153 107.251 54.0929 107.285C53.9554 107.362 53.8208 107.443 53.6861 107.529C53.626 107.566 53.563 107.606 53.5028 107.643C53.3424 107.75 53.182 107.859 53.0245 107.976C52.9987 107.993 52.973 108.011 52.95 108.028C52.7753 108.157 52.6006 108.294 52.4288 108.438C52.3658 108.489 52.3056 108.544 52.2426 108.596C52.128 108.693 52.0163 108.793 51.9018 108.897C51.8359 108.957 51.77 109.017 51.707 109.077C51.5838 109.195 51.4607 109.318 51.3404 109.442C50.9394 109.854 50.5527 110.296 50.1947 110.766C48.8829 112.476 47.8719 114.543 47.3792 116.66C47.1759 117.506 47.0985 118.452 47.13 119.441C47.1615 120.428 47.3334 121.423 47.574 122.412H47.5711Z" fill="#334251"/>
<path d="M25.3537 61.1406C24.2739 62.6491 23.0022 64.08 21.6904 65.4021C21.6303 65.4651 21.5644 65.5225 21.5014 65.5856C20.8799 66.205 20.2268 66.8044 19.548 67.3779C19.4821 67.4353 19.4105 67.4869 19.3418 67.5442C19.0668 67.7737 18.789 68.0002 18.5026 68.221C18.1417 68.5021 17.7722 68.7745 17.397 69.0412C17.4285 69.0469 17.4629 69.0498 17.4944 69.0555C19.9605 69.5 22.6127 68.3501 24.6262 66.5033C24.652 66.4803 24.6777 66.4516 24.7035 66.4258C24.7035 66.4258 24.7064 66.423 24.7093 66.4201C25.4138 65.7548 26.0697 64.8658 26.6769 63.8621C26.6769 63.8592 26.6798 63.8564 26.6827 63.8506C26.7801 63.6872 26.8803 63.5208 26.9748 63.3517C27.0751 63.1767 27.1724 63.0018 27.267 62.8211C28.0432 61.3586 28.51 59.7842 28.7105 58.3131C25.9895 57.6793 22.5268 58.7146 20.0349 60.7936C19.9347 60.8768 19.8373 60.9686 19.7399 61.0632C17.9498 62.781 16.6008 66.0731 16.7325 68.2153C19.2158 66.813 21.4298 65.1325 23.5321 63.1136C23.7354 62.9158 23.9302 62.715 24.1221 62.5114C24.1507 62.4799 24.1822 62.4483 24.2109 62.4168C24.6004 61.9981 24.9785 61.5708 25.348 61.1435L25.3537 61.1406Z" fill="#334251"/>
<path d="M28.4785 71.4415C28.0804 71.5734 27.6823 71.7282 27.2899 71.906C27.1037 71.9892 26.9204 72.081 26.7371 72.1756C26.654 72.2186 26.5738 72.2645 26.4936 72.3075C26.3934 72.362 26.296 72.4136 26.1986 72.471C26.0955 72.5312 25.9953 72.5943 25.8922 72.6545C25.8206 72.7004 25.7461 72.7434 25.6745 72.7893C25.5599 72.8639 25.4482 72.9384 25.3336 73.0158C25.2792 73.0531 25.2219 73.0904 25.1675 73.1305C25.0444 73.2166 24.9241 73.3083 24.8038 73.3972C24.7637 73.4288 24.7236 73.4603 24.6835 73.4919C24.5546 73.5922 24.4286 73.6955 24.3054 73.7987C24.2768 73.8217 24.251 73.8446 24.2223 73.8704C24.0906 73.9851 23.9617 74.0998 23.8357 74.2174C23.8214 74.2318 23.807 74.2461 23.7899 74.2604C23.6552 74.3895 23.5235 74.5185 23.3975 74.6533C23.2858 74.7709 23.1741 74.8885 23.0681 75.0089C22.1487 76.047 21.4298 77.564 20.9858 79.147C20.5562 80.7214 20.4961 82.333 20.7023 83.5461C21.9224 82.5825 23.0767 81.553 24.1565 80.4518C25.2391 79.3506 26.2187 78.1863 27.1982 76.9303C27.3243 76.7668 27.4445 76.6005 27.5648 76.4342C28.0202 75.8061 28.4413 75.1609 28.8537 74.5157C26.9032 78.1204 24.5546 81.4297 21.5415 84.329C24.0505 84.4322 26.5166 83.0356 28.3811 81.0139C28.404 80.9881 28.4298 80.9623 28.4527 80.9365C28.616 80.7558 28.7793 80.5723 28.9311 80.383C29.3807 79.8267 29.8046 79.1499 30.1798 78.4043C30.5608 77.6587 30.8615 76.8528 31.1766 76.004C31.4744 75.158 31.7064 74.292 31.8468 73.4403C31.9155 73.013 31.9642 72.5914 31.9871 72.1785C32.0072 71.7655 32.0415 71.3497 32.0244 70.9539C31.8353 70.9396 31.6434 70.9339 31.4487 70.9339C30.4806 70.9339 29.4724 71.1117 28.4757 71.4386L28.4785 71.4415Z" fill="#334251"/>
<path d="M36.5297 103.52C36.2061 104.265 35.9769 105.126 35.8423 106.04C35.7077 106.955 35.702 107.899 35.7593 108.845C35.8566 110.698 36.3693 112.447 37.0367 113.694C37.0367 113.694 37.0395 113.7 37.0424 113.703C37.0596 113.737 37.0768 113.775 37.0968 113.806C38.5662 111.503 39.7977 109.112 40.826 106.605C41.1697 105.768 41.4876 104.919 41.7883 104.056C41.7998 104.027 41.8055 103.999 41.817 103.97C42.1693 102.926 42.4328 101.882 42.7278 100.815C42.5044 101.985 42.2896 103.118 42.0003 104.268C41.7253 105.41 41.3702 106.571 41.0265 107.689C40.3248 109.932 39.391 112.189 38.3341 114.334C39.6087 113.935 40.7429 113.204 41.7225 112.263C41.7225 112.263 41.7253 112.26 41.7282 112.258C41.8284 112.163 41.9258 112.065 42.0232 111.965C42.1378 111.848 42.2495 111.727 42.3583 111.604C43.4696 110.339 44.3289 108.808 44.9504 107.144C45.5318 105.576 45.7925 103.574 45.8354 101.527C45.8412 100.511 45.7696 99.4992 45.6493 98.5127C45.529 97.5262 45.2655 96.6228 44.9762 95.7654C43.2577 96.2128 41.5535 97.2021 40.0727 98.5614C39.8493 98.7679 39.6316 98.983 39.4197 99.2038C38.927 99.7171 38.463 100.268 38.042 100.856C37.4491 101.687 36.9393 102.588 36.5326 103.523L36.5297 103.52Z" fill="#334251"/>
<path d="M208.105 6.22109C208.544 6.94088 209.271 7.64921 210.059 8.21415C210.454 8.49805 210.864 8.74467 211.262 8.94541C211.494 9.07159 211.717 9.1777 211.938 9.2666C211.943 9.2666 211.946 9.26946 211.952 9.27233C212.104 9.33255 212.253 9.38704 212.396 9.42719C212.353 9.22932 212.304 9.03431 212.253 8.83644C212.215 8.69592 212.175 8.5554 212.132 8.41489C212.118 8.369 212.107 8.32025 212.092 8.27437C212.041 8.10517 211.983 7.93311 211.926 7.76392C211.923 7.75244 211.92 7.74384 211.915 7.73237C211.809 7.42553 211.697 7.12155 211.568 6.81757C211.207 5.97733 210.76 5.1715 210.208 4.38575C209.864 3.89537 209.466 3.4308 209.053 2.97197C210.013 3.87243 210.826 4.84172 211.488 5.87123C212.15 6.92081 212.659 8.04208 213.029 9.18917C213.837 7.78112 213.716 5.94005 212.8 4.31692C212.585 3.93552 212.281 3.53117 211.909 3.13543C211.534 2.75689 211.093 2.38409 210.603 2.03996C209.626 1.35171 208.463 0.781036 207.323 0.5C207.263 0.623312 207.212 0.752359 207.166 0.884273C206.602 2.47299 207.097 4.54347 208.103 6.21248L208.105 6.22109Z" fill="#334251"/>
<path d="M23.8385 25.2053C24.4343 24.953 25.0157 24.6547 25.6143 24.3565C25.0129 24.7207 24.4286 25.0648 23.8271 25.3831C23.7297 25.4348 23.6323 25.4778 23.5349 25.5265C23.2944 25.6498 23.048 25.7703 22.8046 25.8821C22.5296 26.0083 22.2547 26.1316 21.974 26.2463C20.7109 26.7654 19.3933 27.1726 18.0357 27.4508C19.5451 28.5032 21.6704 28.5261 23.5894 27.8408C24.4973 27.5138 25.5141 26.8686 26.4134 26.0628C26.6397 25.862 26.8574 25.6498 27.0636 25.429C27.2813 25.2111 27.4932 24.9874 27.688 24.758C28.0804 24.2963 28.4184 23.8116 28.6704 23.3155C27.0092 22.1197 24.4114 21.9189 22.1659 22.6445C22.0456 22.6818 21.9224 22.7248 21.8021 22.7735C21.762 22.7907 21.7219 22.8108 21.6818 22.828C21.6016 22.8624 21.5186 22.8997 21.4384 22.9398C21.3925 22.9628 21.3467 22.9886 21.298 23.0144C21.2236 23.0546 21.1491 23.0947 21.0746 23.1377C21.0259 23.1664 20.9801 23.1951 20.9343 23.2238C20.8627 23.2696 20.7882 23.3155 20.7166 23.3643C20.6708 23.3958 20.6249 23.4274 20.582 23.4589C20.5075 23.5105 20.4359 23.565 20.3643 23.6195C20.3213 23.651 20.2812 23.6826 20.2411 23.7141C20.1667 23.7744 20.0922 23.8346 20.0177 23.8977C19.9834 23.9292 19.9461 23.9579 19.9118 23.9894C19.8287 24.0611 19.7514 24.1357 19.6712 24.2102C19.6454 24.2332 19.6196 24.2561 19.5938 24.2819C19.4936 24.3794 19.3962 24.4769 19.3017 24.5773C19.2988 24.5802 19.296 24.583 19.2931 24.5859C18.6401 25.277 18.1159 26.0456 17.8381 26.7195C19.8917 26.5015 21.9052 26.014 23.8328 25.2111L23.8385 25.2053Z" fill="#334251"/>
<path d="M197.677 89.0922C198.018 90.9734 198.571 92.7772 199.364 94.1308C200.899 96.815 203.302 99.0203 206.121 99.5565C206.264 99.5852 206.407 99.611 206.55 99.6282C205.883 98.7277 205.276 97.8158 204.68 96.8666C204.084 95.9174 203.534 94.9538 203.024 93.9731C202.861 93.6519 202.701 93.325 202.54 93.0009C202.54 93.0009 202.54 93.0009 202.54 92.9981C201.738 91.3491 201.002 89.64 200.418 87.9222C200.836 88.8714 201.266 89.8292 201.776 90.7612C202.603 92.2639 203.46 93.672 204.439 95.0399C205.407 96.402 206.479 97.7126 207.61 98.9514C208.045 97.6925 208.229 95.9461 208.045 94.1939C207.839 92.4274 207.364 90.7068 206.516 89.4278C204.425 86.2102 200.908 83.8759 197.594 83.6006C197.419 84.4293 197.37 85.3384 197.396 86.2675C197.402 87.1881 197.502 88.143 197.674 89.0865L197.677 89.0922Z" fill="#334251"/>
<path d="M220.553 20.3503C219.456 21.8845 218.731 24.6404 218.938 26.2807C219.743 25.7359 220.504 25.125 221.215 24.4368C221.215 24.4368 221.215 24.4368 221.218 24.4339C221.412 24.2447 221.604 24.0497 221.79 23.8489C221.79 23.8489 221.796 23.8432 221.799 23.8403C221.977 23.6482 222.151 23.4532 222.323 23.2496C222.337 23.2352 222.349 23.2209 222.363 23.2037C222.521 23.0144 222.673 22.8223 222.824 22.6244C222.847 22.5929 222.873 22.5642 222.896 22.5326C223.068 22.3061 223.234 22.0709 223.394 21.83C223.787 21.2508 224.119 20.6285 224.414 19.9947C224.159 20.6944 223.833 21.3712 223.475 22.0164C223.119 22.6588 222.733 23.2668 222.315 23.8403C221.79 24.5601 221.215 25.2197 220.599 25.8305C220.619 25.8104 220.639 25.7932 220.656 25.7731C220.473 25.9567 220.284 26.1402 220.095 26.3151C219.889 26.5015 219.682 26.6879 219.468 26.8629C219.482 26.8629 219.496 26.8629 219.511 26.8686C221.043 27.0837 222.612 26.5015 223.847 25.3487C223.961 25.2426 224.07 25.1308 224.179 25.0161C224.191 25.0017 224.205 24.9903 224.216 24.9759C224.325 24.8555 224.434 24.7322 224.537 24.6031C225.159 23.826 225.703 22.6301 226.047 21.2823C226.132 20.9439 226.207 20.5969 226.267 20.2471C226.316 19.8972 226.347 19.5473 226.365 19.1917C226.399 18.4863 226.367 17.778 226.264 17.1069C226.144 17.0983 226.024 17.0926 225.903 17.0954C225.863 17.0954 225.82 17.0983 225.78 17.1012C225.7 17.1041 225.62 17.1098 225.54 17.1155C225.491 17.1213 225.442 17.127 225.394 17.1327C225.319 17.1413 225.247 17.1528 225.173 17.1671C225.121 17.1757 225.073 17.1843 225.021 17.1958C224.95 17.2102 224.878 17.2274 224.806 17.2474C224.755 17.2618 224.706 17.2732 224.655 17.2876C224.577 17.3105 224.5 17.3363 224.423 17.3621C224.331 17.3937 224.239 17.4281 224.148 17.4625C224.087 17.4855 224.027 17.5084 223.964 17.5371C223.896 17.5658 223.83 17.6002 223.761 17.6317C223.715 17.6547 223.669 17.6747 223.624 17.6977C223.552 17.7349 223.48 17.7722 223.409 17.8124C223.371 17.8325 223.331 17.8554 223.294 17.8755C223.217 17.9185 223.139 17.9644 223.065 18.0131C223.039 18.0303 223.013 18.0475 222.988 18.0619C222.495 18.3744 222.028 18.7501 221.596 19.1717C221.596 19.1717 221.593 19.1745 221.59 19.1774C221.215 19.5416 220.865 19.9402 220.553 20.3589V20.3503Z" fill="#334251"/>
<path d="M222.146 35.9449C221.704 37.1178 221.358 38.328 221.352 39.2657C222.389 38.7438 223.386 38.1301 224.331 37.4075C224.801 37.049 225.262 36.6618 225.7 36.246C225.7 36.246 225.7 36.246 225.703 36.2432C225.872 36.0826 226.035 35.9162 226.198 35.747C226.25 35.6954 226.301 35.6467 226.353 35.5922C226.562 35.3685 226.768 35.1362 226.966 34.8982C227.149 34.6774 227.324 34.448 227.496 34.2157C227.496 34.2157 227.502 34.21 227.502 34.2071C227.791 33.8113 228.069 33.3984 228.341 32.9768C227.381 34.8351 226.147 36.4382 224.729 37.7774C224.875 37.6311 225.024 37.4906 225.167 37.3386C224.159 38.3595 223.056 39.2457 221.882 39.9827C221.876 39.9855 221.871 39.9913 221.865 39.9941C223.838 40.5562 226.038 39.8852 227.742 38.2936C227.742 38.2936 227.742 38.2936 227.742 38.2964C227.785 38.2563 227.828 38.219 227.868 38.1789C228.275 37.7831 228.673 37.2698 229.045 36.6705C229.418 36.0682 229.767 35.38 230.022 34.6487C230.552 33.1804 230.878 31.5057 230.844 29.9514C228.516 29.4754 225.898 30.8662 223.996 32.8392C223.245 33.6278 222.604 34.7749 222.157 35.9449H222.146Z" fill="#334251"/>
<path d="M225.591 47.0774C225.468 47.1921 225.348 47.3125 225.227 47.4416C223.661 49.102 222.441 51.6829 222.105 53.4666C224.546 52.6293 226.903 51.356 228.925 49.4748C229.025 49.383 229.12 49.2884 229.217 49.1938C229.217 49.1938 229.217 49.1937 229.214 49.1966C229.214 49.1966 229.22 49.1909 229.223 49.188C229.378 49.0389 229.529 48.884 229.678 48.7263C229.684 48.7206 229.693 48.712 229.698 48.7062C230.054 48.3306 230.397 47.9377 230.738 47.5362C229.953 48.6317 229.12 49.621 228.22 50.5043C228.04 50.6821 227.854 50.857 227.668 51.0262C227.651 51.0406 227.636 51.0549 227.619 51.0692C227.421 51.247 227.221 51.422 227.018 51.5883C225.62 52.7239 224.122 53.6387 222.549 54.3413C224.686 55.2848 227.287 54.8489 229.441 53.2487C229.75 53.0193 230.065 52.7354 230.374 52.4142C230.394 52.3941 230.414 52.374 230.432 52.354C230.518 52.2651 230.601 52.1733 230.687 52.0758C230.709 52.05 230.735 52.0184 230.758 51.9926C230.89 51.8378 231.022 51.6772 231.151 51.5109C231.199 51.4478 231.248 51.3876 231.294 51.3245C231.342 51.2585 231.391 51.1868 231.44 51.118C231.503 51.0291 231.563 50.9402 231.623 50.8513C231.666 50.7882 231.706 50.7222 231.749 50.6563C231.818 50.5502 231.884 50.4383 231.95 50.3294C231.981 50.2749 232.016 50.2204 232.047 50.163C232.144 49.9938 232.239 49.8218 232.328 49.644C232.734 48.864 233.09 48.0209 233.37 47.1519C233.511 46.7189 233.631 46.2802 233.728 45.8385C233.809 45.3998 233.866 44.961 233.897 44.528C231.394 43.6619 228.318 44.8406 225.966 46.7447C225.84 46.848 225.714 46.9569 225.591 47.0716V47.0774ZM228.189 50.5358C228.123 50.5989 228.06 50.6649 227.994 50.728C228.06 50.662 228.126 50.6018 228.189 50.5358Z" fill="#334251"/>
<path d="M216.563 13.3904C216.586 13.3674 216.609 13.3445 216.629 13.3187C216.813 13.1179 216.993 12.9143 217.165 12.7021C217.294 12.5415 217.42 12.3752 217.543 12.206C217.614 12.1085 217.683 12.0081 217.752 11.9078C217.795 11.8447 217.841 11.7816 217.884 11.7156C217.975 11.578 218.064 11.4346 218.15 11.2941C218.164 11.2711 218.176 11.2511 218.19 11.2281C218.359 10.9471 218.525 10.6603 218.68 10.3592C218.952 9.8258 219.175 9.25799 219.387 8.67585C219.041 9.94624 218.565 11.1191 217.97 12.1859C217.351 13.2613 216.603 14.2392 215.761 15.1024C216.918 15.1425 218.047 14.6579 218.966 13.8062C219.055 13.723 219.141 13.6399 219.224 13.551C219.23 13.5452 219.236 13.5395 219.238 13.5338C219.316 13.4535 219.39 13.3674 219.465 13.2814C219.476 13.2671 219.488 13.2556 219.499 13.2412C219.565 13.1609 219.628 13.0807 219.691 12.9975C219.705 12.9774 219.723 12.9573 219.737 12.9373C219.811 12.8369 219.883 12.7308 219.952 12.6247C220.189 12.2548 220.401 11.7988 220.576 11.2826C220.736 10.775 220.857 10.2072 220.931 9.61359C221.08 8.42636 221.043 7.13302 220.756 5.99167C220.656 5.99167 220.556 6.00314 220.456 6.01461C220.427 6.01748 220.398 6.02321 220.37 6.02608C220.29 6.03755 220.209 6.05189 220.126 6.0691C220.106 6.07483 220.083 6.0777 220.063 6.08057C219.966 6.10351 219.871 6.12932 219.777 6.158C219.745 6.1666 219.717 6.17807 219.685 6.18667C219.617 6.20961 219.548 6.23256 219.479 6.26123C219.445 6.2727 219.413 6.28704 219.379 6.30138C219.29 6.33866 219.201 6.37594 219.112 6.41896C219.078 6.43616 219.041 6.45624 219.006 6.47344C218.949 6.50212 218.892 6.53367 218.835 6.56521C218.792 6.58815 218.749 6.61396 218.706 6.63977C218.654 6.67132 218.605 6.70286 218.554 6.73441C218.479 6.78316 218.405 6.83191 218.331 6.88353C218.29 6.9122 218.25 6.93801 218.21 6.96956C218.159 7.00684 218.107 7.04699 218.056 7.08713C218.024 7.11008 217.995 7.13589 217.964 7.1617C217.786 7.30508 217.612 7.45994 217.445 7.6234C217.425 7.64347 217.405 7.66355 217.382 7.68362C216.884 8.17973 216.44 8.75041 216.076 9.36123C215.647 10.0839 215.363 11.0589 215.229 12.0225C215.163 12.5042 215.137 12.9832 215.146 13.4305C215.14 13.8836 215.174 14.3023 215.249 14.6579C215.707 14.265 216.145 13.8435 216.558 13.3961L216.563 13.3904Z" fill="#334251"/>
<path d="M215.988 38.4742C217.062 38.8901 218.167 39.2313 219.296 39.498C219.058 38.6062 218.528 37.525 217.732 36.5816C216.941 35.6352 215.982 34.8093 215.031 34.3706C212.659 33.255 209.695 33.1575 207.696 34.2616C208.103 35.4259 208.887 36.5873 209.818 37.5939C210.296 38.0957 210.766 38.5631 211.253 38.9646C211.74 39.3661 212.238 39.7016 212.717 39.9482C214.641 40.9233 216.873 41.2273 218.671 40.4386C218.772 40.3956 218.869 40.3497 218.966 40.301C218.623 40.1834 218.285 40.0544 217.947 39.9224C217.698 39.8221 217.451 39.716 217.205 39.6099C217.133 39.5783 217.059 39.5496 216.984 39.5152C216.678 39.3776 216.374 39.2371 216.076 39.0879C216.071 39.0851 216.062 39.0822 216.056 39.0793C215.753 38.9273 215.452 38.7725 215.154 38.6119C213.679 37.8118 212.278 36.8741 210.935 35.8159C211.542 36.2288 212.161 36.6332 212.814 36.9916C213.871 37.5623 214.914 38.0584 215.985 38.4771L215.988 38.4742Z" fill="#334251"/>
<path d="M203.145 73.4431C203.285 74.2948 203.517 75.1609 203.815 76.0069C204.13 76.8557 204.431 77.6615 204.812 78.4071C205.187 79.1499 205.611 79.8267 206.06 80.3859C207.882 82.6313 210.431 84.2802 213.058 84.3347C213.189 84.3376 213.318 84.3404 213.45 84.3347C213.109 84.0078 212.78 83.6751 212.456 83.3367C212.405 83.2822 212.35 83.2278 212.299 83.1733C212.021 82.8808 211.751 82.5825 211.488 82.2814C211.385 82.1638 211.282 82.0463 211.179 81.9287C210.961 81.6763 210.749 81.4211 210.54 81.1659C210.391 80.9823 210.245 80.8017 210.102 80.6153C210.044 80.5436 209.99 80.469 209.933 80.3945C209.646 80.0245 209.368 79.6517 209.096 79.2703C208.011 77.7562 207.031 76.1703 206.138 74.5214C206.659 75.3358 207.192 76.1531 207.793 76.9331C208.773 78.1921 209.749 79.3535 210.835 80.4547C211.863 81.5043 212.963 82.4879 214.12 83.4113C214.177 83.4572 214.232 83.5059 214.289 83.5489C214.366 83.093 214.407 82.5825 214.404 82.0377C214.401 81.4928 214.355 80.9164 214.261 80.3285C214.198 79.9385 214.114 79.5399 214.006 79.147C213.562 77.564 212.843 76.0499 211.923 75.0089C210.786 73.7041 209.265 72.6144 207.704 71.9032C206.135 71.1891 204.485 70.8392 202.967 70.9539C202.95 71.3526 202.984 71.7655 203.004 72.1785C203.024 72.5914 203.073 73.013 203.145 73.4403V73.4431Z" fill="#334251"/>
<path d="M218.256 68.2153C218.396 65.9584 216.89 62.4168 214.957 60.7965C212.465 58.7203 209.002 57.6822 206.284 58.3159C206.484 59.7871 206.951 61.3615 207.727 62.824C208.515 64.2865 209.397 65.6143 210.371 66.5033C212.313 68.287 214.845 69.4169 217.236 69.0985C217.36 69.0842 217.48 69.0641 217.6 69.0412C216.048 67.9457 214.613 66.7241 213.307 65.4021C213.278 65.3734 213.249 65.3418 213.221 65.3132C213.221 65.3132 213.218 65.3103 213.215 65.3074C211.935 64.0112 210.697 62.6118 209.643 61.1378C210.222 61.8088 210.812 62.4799 211.459 63.1108C213.562 65.1296 215.776 66.813 218.259 68.2124L218.256 68.2153Z" fill="#334251"/>
<path d="M219.396 53.2487C219.533 53.3032 219.668 53.3605 219.803 53.415C219.639 51.3675 217.815 48.3736 215.873 47.1519C213.542 45.6865 210.528 45.1445 208.217 45.8414C208.062 45.8873 207.911 45.9389 207.765 45.9963C207.848 46.326 207.959 46.6587 208.091 46.9913C208.206 47.3269 208.343 47.6595 208.498 47.9922C208.81 48.6546 209.197 49.3056 209.632 49.9222C210.526 51.1524 211.508 52.2393 212.488 52.916C214.461 54.2725 216.881 54.9493 218.986 54.347C219.095 54.3155 219.207 54.2839 219.316 54.2438C218.946 54.0545 218.58 53.8595 218.219 53.6559C217.918 53.4867 217.62 53.306 217.328 53.1254C217.277 53.0938 217.225 53.0652 217.176 53.0336C216.495 52.6063 215.833 52.1532 215.191 51.6772C215.123 51.6256 215.054 51.5797 214.985 51.5281C213.619 50.5043 212.304 49.3716 211.136 48.1413C211.743 48.6776 212.359 49.211 213.02 49.6956C215.045 51.1639 217.142 52.3339 219.39 53.2458L219.396 53.2487Z" fill="#334251"/>
<path d="M47.1759 133.355C47.2045 133.315 47.2303 133.275 47.2589 133.232C47.3219 133.135 47.3792 133.034 47.4394 132.934C47.4852 132.854 47.531 132.773 47.5768 132.693C47.6227 132.61 47.6685 132.524 47.7115 132.438C47.7659 132.329 47.8174 132.22 47.8661 132.111C47.8976 132.042 47.9291 131.976 47.9578 131.907C48.0351 131.724 48.1067 131.537 48.1697 131.351C47.9005 131.468 47.6255 131.577 47.3534 131.684C47.2704 131.715 47.1845 131.747 47.1014 131.781C46.9038 131.856 46.7061 131.93 46.5056 131.999C46.414 132.03 46.3223 132.065 46.2307 132.096C46.0044 132.174 45.7753 132.248 45.5462 132.317C45.4889 132.334 45.4344 132.355 45.3772 132.372C45.1079 132.455 44.8358 132.529 44.5609 132.604C44.4492 132.636 44.3346 132.661 44.22 132.693C44.0482 132.736 43.8763 132.779 43.7045 132.819C43.5756 132.851 43.4438 132.879 43.3149 132.908C43.1517 132.942 42.9884 132.977 42.8223 133.008C42.639 133.046 42.4528 133.08 42.2695 133.112C42.0662 133.149 41.8628 133.183 41.6566 133.215C41.4933 133.241 41.3272 133.261 41.1611 133.284C41.0379 133.301 40.9148 133.315 40.7887 133.332C40.614 133.352 40.4365 133.373 40.2589 133.39C40.1529 133.401 40.0441 133.41 39.9352 133.418C39.2936 133.476 38.6463 133.51 37.9904 133.519C37.9045 133.519 37.8186 133.522 37.7298 133.522C37.5236 133.522 37.3174 133.522 37.1111 133.522C37.0252 133.522 36.9393 133.519 36.8562 133.516C36.6443 133.51 36.4352 133.507 36.2233 133.496C36.2233 133.496 36.2233 133.496 36.2204 133.496C34.8628 133.436 33.4822 133.281 32.0759 133.023C33.4364 133.18 34.8169 133.246 36.1431 133.186C37.2085 133.137 38.2425 133.028 39.245 132.868C40.2532 132.702 41.247 132.464 42.2037 132.188C44.1227 131.629 45.9214 130.886 47.6341 129.971C47.4709 129.86 47.299 129.748 47.1186 129.642C46.5773 129.315 45.9557 129.005 45.2741 128.727C44.8215 128.54 44.3375 128.368 43.8448 128.205C43.3579 128.033 42.8538 127.878 42.3411 127.738C41.3158 127.454 40.2331 127.253 39.2049 127.121C38.1795 126.983 37.1742 126.943 36.2605 127.032C33.9577 127.264 31.6864 127.852 29.7473 128.844C29.6127 128.913 29.481 128.985 29.3521 129.057C29.3349 129.065 29.3177 129.077 29.3034 129.085C29.1831 129.154 29.0628 129.223 28.9454 129.292C27.3758 130.241 26.1012 131.486 25.3823 133.043C26.4077 133.963 27.6279 134.743 28.8824 135.426C30.1283 136.117 31.4716 136.65 32.7862 137.058C33.4421 137.261 34.0923 137.433 34.7281 137.574C35.3669 137.711 36.0027 137.797 36.6042 137.858C37.8157 137.978 38.9242 137.964 39.8694 137.812C43.0486 137.284 45.6636 135.641 47.1787 133.352L47.1759 133.355Z" fill="#334251"/>
<path d="M6.22099 69.5803C8.81021 70.9855 11.6944 71.0428 13.8683 69.6864C13.8769 69.6807 13.8884 69.6749 13.897 69.6692C12.5279 69.2849 11.1875 68.7602 9.88714 68.0891C9.45179 67.8654 9.02216 67.6274 8.59826 67.3722C8.37199 67.2374 8.15145 67.094 7.93091 66.9506C6.49882 66.0014 5.17843 64.8515 3.90101 63.5065C4.63997 64.1747 5.39038 64.8113 6.17803 65.3562C8.67273 67.1055 11.4596 68.1207 14.2407 68.6426C14.149 68.3701 14.0345 68.0834 13.897 67.7851C12.9489 65.7032 11.0042 63.1337 8.97633 61.9092C7.02583 60.722 4.73735 59.9563 2.65796 60.028C2.46892 60.0337 2.27989 60.048 2.09658 60.0681C1.35476 60.1513 0.647304 60.3492 0 60.6847C0.369479 62.5831 1.38913 64.4901 2.50043 66.076C3.60027 67.6704 5.00372 68.915 6.22099 69.5803Z" fill="#334251"/>
<path d="M15.6986 39.5009C16.827 39.2342 17.9326 38.8929 19.0067 38.4771C20.0779 38.0584 21.1233 37.5652 22.1773 36.9916C22.8304 36.6332 23.4462 36.2288 24.0562 35.8159C23.6237 36.1571 23.1855 36.4812 22.7416 36.7966C21.7792 37.4791 20.7853 38.1014 19.7571 38.6549C19.6483 38.7151 19.5366 38.7754 19.4277 38.8327C19.2559 38.9216 19.084 39.0076 18.9093 39.0937C18.7546 39.1711 18.5971 39.2457 18.4424 39.3174C18.2906 39.389 18.1417 39.4579 17.987 39.5238C17.7894 39.6127 17.5889 39.6959 17.3884 39.779C17.2653 39.8307 17.145 39.8823 17.0218 39.931C16.6924 40.0601 16.3602 40.1863 16.0251 40.301C16.1081 40.344 16.1912 40.3813 16.2771 40.4185C18.0816 41.2301 20.3357 40.9319 22.2747 39.9482C22.753 39.7045 23.2514 39.369 23.7383 38.9646C24.0161 38.7323 24.2911 38.48 24.5632 38.2104C24.5632 38.2104 24.5632 38.2104 24.5603 38.2133C24.5603 38.2133 24.5632 38.2104 24.566 38.2075C24.7665 38.0097 24.9699 37.8061 25.1704 37.591C26.1041 36.5844 26.886 35.423 27.2927 34.2587C25.2935 33.1546 22.3291 33.2521 19.9576 34.3677C19.8487 34.4193 19.7399 34.4767 19.6311 34.5369C19.5967 34.5569 19.5623 34.577 19.528 34.5971C19.4535 34.6401 19.3819 34.6831 19.3074 34.729C19.2645 34.7577 19.2186 34.7864 19.1757 34.815C19.1155 34.8552 19.0554 34.8982 18.9952 34.9412C18.9437 34.9785 18.8921 35.0158 18.8406 35.0531C18.7976 35.0846 18.7575 35.119 18.7145 35.1534C18.1961 35.5606 17.7006 36.0482 17.2595 36.5787C16.4633 37.5222 15.9363 38.6033 15.6957 39.4951L15.6986 39.5009Z" fill="#334251"/>
<path d="M24.4314 101.991C24.4859 101.934 24.5345 101.874 24.5861 101.816C24.6405 101.756 24.6949 101.699 24.7465 101.636C24.4658 101.647 24.1823 101.656 23.8987 101.659C23.048 101.67 22.1888 101.638 21.3438 101.552C20.2154 101.438 19.084 101.243 17.9441 100.967C17.7063 100.91 17.4658 100.847 17.2309 100.784C17.1306 100.755 17.0304 100.729 16.9302 100.698C16.827 100.669 16.7239 100.635 16.6208 100.606C16.343 100.52 16.068 100.434 15.7902 100.337C14.2464 99.806 12.7284 99.1063 11.2075 98.246C12.2873 98.7478 13.3643 99.2066 14.4526 99.5479C16.1797 100.099 17.9527 100.394 19.6626 100.52C21.3811 100.641 23.0595 100.58 24.7293 100.359C23.9617 99.2353 22.6155 98.0252 21.1061 96.9641C19.6253 95.8944 17.8897 95.0112 16.3802 94.6154C12.5651 93.6519 8.20014 93.9444 5.77991 96.3762C5.78277 96.3819 5.7885 96.3906 5.79137 96.3963C6.37852 97.4 7.08597 98.3779 7.89367 99.2726C8.72715 100.164 9.63509 100.982 10.5631 101.693C12.4305 103.107 14.4498 104.039 16.0537 104.36C19.3418 104.979 22.4723 104.082 24.4257 101.991H24.4314Z" fill="#334251"/>
<path d="M9.59213 86.778C12.6196 87.8849 15.7501 87.4519 17.8782 85.5994C17.5918 85.5649 17.3082 85.5219 17.0218 85.4761C16.933 85.4617 16.8442 85.4445 16.7583 85.4302C16.5549 85.3958 16.3516 85.3585 16.1482 85.3155C16.0537 85.2954 15.9621 85.2753 15.8675 85.2552C15.6585 85.2093 15.4494 85.1635 15.2403 85.1118C15.163 85.0918 15.0856 85.0746 15.0083 85.0545C14.7391 84.9857 14.4727 84.914 14.2035 84.8337C14.1891 84.8279 14.172 84.8251 14.1576 84.8193C13.5533 84.6387 12.9489 84.4351 12.3503 84.2028C12.3303 84.1942 12.3074 84.1856 12.2873 84.177C12.0124 84.068 11.7345 83.9562 11.4624 83.8357C11.4367 83.8242 11.408 83.8128 11.3822 83.8013C11.0958 83.6751 10.8123 83.5432 10.5287 83.4056C8.98779 82.6514 7.49555 81.7079 6.08351 80.5579C6.98859 81.1659 7.8994 81.7365 8.83599 82.1982C10.3196 82.9467 11.8949 83.4687 13.4387 83.8271C14.9882 84.1856 16.5378 84.3748 18.0844 84.4236C17.5574 83.2851 16.4776 81.9975 15.2718 80.8103C15.1229 80.6612 14.9711 80.5149 14.8135 80.3715C13.7251 79.3649 12.4935 78.4932 11.3106 77.997C9.80981 77.3834 8.25456 76.9675 6.72222 76.8528C6.50455 76.8356 6.28401 76.827 6.06633 76.8242C4.3335 76.7926 2.68946 77.1712 1.40058 78.1089C1.58962 78.6079 1.79297 79.1097 2.05648 79.5944C2.31998 80.079 2.61213 80.5522 2.92146 81.0167C3.54299 81.9402 4.24471 82.8091 4.9808 83.5805C5.69971 84.3576 6.53032 85.0172 7.31511 85.5592C8.10562 86.0983 8.87895 86.5113 9.59499 86.7722L9.59213 86.778Z" fill="#334251"/>
<path d="M82.8435 158.499C82.8664 158.459 82.8922 158.422 82.9151 158.382C83.001 158.239 83.0869 158.095 83.1642 157.949C83.1843 157.912 83.2015 157.874 83.2215 157.837C83.3647 157.567 83.4936 157.295 83.6139 157.017C83.6397 156.96 83.6655 156.905 83.6884 156.848C83.7371 156.73 83.7801 156.613 83.823 156.495C83.8574 156.397 83.8946 156.3 83.9261 156.202C83.9633 156.096 83.9977 155.987 84.0292 155.878C84.0665 155.758 84.098 155.638 84.1295 155.517C84.1524 155.425 84.1782 155.336 84.1982 155.245C84.2469 155.038 84.287 154.829 84.3214 154.619C84.3328 154.556 84.3386 154.49 84.3472 154.424C84.3701 154.264 84.3901 154.103 84.4073 153.943C84.4159 153.865 84.4216 153.788 84.4245 153.708C84.436 153.55 84.4417 153.392 84.4474 153.234C84.4474 153.166 84.4503 153.094 84.4503 153.025C84.4503 152.798 84.4445 152.575 84.4302 152.348C82.368 154.453 79.965 156.311 77.2526 157.762C75.8921 158.502 74.4457 159.156 72.9334 159.681C72.2346 159.925 71.5128 160.154 70.7767 160.363C70.7681 160.366 70.7595 160.369 70.7509 160.372C69.9031 160.613 69.0353 160.822 68.1531 160.98C69.6682 160.573 71.1605 160.062 72.541 159.44C73.6495 158.935 74.692 158.399 75.6888 157.78C76.6855 157.163 77.6278 156.501 78.5157 155.801C79.4036 155.101 80.2399 154.361 81.0276 153.584C81.8209 152.796 82.5656 151.97 83.2674 151.115C82.8291 151.023 82.3451 150.969 81.8381 150.923C81.334 150.871 80.7984 150.843 80.2428 150.84C79.1315 150.831 77.9257 150.932 76.7285 151.061C75.5284 151.198 74.3025 151.445 73.1568 151.74C72.014 152.03 70.9314 152.411 70.0034 152.89C69.4191 153.191 68.8462 153.518 68.2877 153.868C67.7349 154.209 67.1965 154.574 66.678 154.961C66.4489 155.133 66.2226 155.311 66.0021 155.491C65.8961 155.577 65.7959 155.663 65.6928 155.752C65.5897 155.841 65.4837 155.93 65.3806 156.022C65.246 156.139 65.1142 156.26 64.9853 156.383C64.928 156.435 64.8736 156.489 64.8192 156.544C64.4869 156.862 64.1662 157.189 63.8683 157.527C62.2328 159.386 61.1359 161.516 61.0299 163.788C61.7832 164.049 62.5622 164.281 63.3585 164.464C64.1604 164.633 64.9796 164.765 65.7987 164.86C67.4285 165.069 69.0926 165.069 70.6678 164.946C72.2374 164.843 73.7411 164.55 75.0787 164.166C76.4163 163.779 77.5762 163.309 78.5214 162.718C79.6184 162.044 80.575 161.255 81.3856 160.386C81.3913 160.381 81.3942 160.378 81.3971 160.372C81.947 159.781 82.4282 159.153 82.8349 158.497L82.8435 158.499Z" fill="#334251"/>
<path d="M167.637 143.017C176.37 138.196 184.433 132.145 191.482 125.088C191.679 124.89 191.877 124.695 192.072 124.494C192.244 124.319 192.415 124.141 192.587 123.964C192.771 123.774 192.957 123.582 193.14 123.393C193.312 123.212 193.484 123.032 193.653 122.848C193.833 122.656 194.011 122.467 194.191 122.272C194.36 122.088 194.529 121.905 194.698 121.721C194.876 121.526 195.053 121.328 195.231 121.133C195.394 120.95 195.557 120.769 195.721 120.585C195.901 120.382 196.082 120.175 196.259 119.972C196.414 119.794 196.571 119.613 196.726 119.435C196.918 119.212 197.107 118.988 197.296 118.764C197.436 118.598 197.577 118.435 197.714 118.268C198.003 117.921 198.29 117.574 198.573 117.224C198.691 117.078 198.808 116.932 198.926 116.783C199.155 116.496 199.384 116.209 199.613 115.92C199.742 115.756 199.868 115.59 199.997 115.426C200.183 115.186 200.369 114.945 200.553 114.704C200.687 114.529 200.819 114.351 200.951 114.173C201.125 113.938 201.303 113.703 201.475 113.468C201.607 113.287 201.738 113.106 201.87 112.926C202.042 112.688 202.214 112.45 202.386 112.209C202.512 112.031 202.641 111.85 202.767 111.67C202.941 111.42 203.113 111.171 203.285 110.921C203.402 110.749 203.523 110.577 203.64 110.405C203.829 110.127 204.012 109.849 204.199 109.571C204.296 109.424 204.396 109.278 204.491 109.129C204.771 108.702 205.049 108.274 205.321 107.841L207.057 105.088L209.463 100.844L210.199 99.3931L211.663 96.4909C213.47 92.5507 215.18 88.5588 216.492 84.4265C216.847 83.4027 217.173 82.3703 217.483 81.3322C218.408 78.2179 219.147 75.049 219.828 71.8745C220.401 68.677 220.928 65.468 221.255 62.239C221.364 61.1636 221.452 60.0853 221.51 59.0042C221.561 58.2873 221.601 57.5703 221.636 56.8534C221.644 56.667 221.653 56.4835 221.662 56.2971C221.693 55.5888 221.719 54.8804 221.736 54.1721C221.736 54.1549 221.736 54.1348 221.736 54.1176C221.753 53.4064 221.759 52.6981 221.762 51.9869C221.762 51.8034 221.762 51.6198 221.762 51.4334C221.762 50.7165 221.753 49.9967 221.736 49.2798C221.736 49.2798 221.736 49.2798 221.736 49.2769C221.719 48.5543 221.69 47.8316 221.659 47.1089C221.65 46.934 221.641 46.7619 221.633 46.587C221.561 45.1388 221.458 43.6906 221.326 42.2482C221.312 42.0818 221.295 41.9155 221.281 41.7492C221.203 40.9548 221.12 40.1633 221.026 39.3718C221.026 39.3575 221.023 39.3432 221.02 39.3317C220.957 38.8098 220.891 38.2878 220.819 37.7688C220.817 37.7372 220.811 37.7086 220.805 37.677C220.736 37.1694 220.665 36.6647 220.587 36.16C220.582 36.1227 220.576 36.0854 220.57 36.0482C220.493 35.5492 220.416 35.0502 220.333 34.5541C220.327 34.5139 220.318 34.4738 220.313 34.4308C220.229 33.9375 220.144 33.4443 220.052 32.951C220.043 32.908 220.035 32.865 220.026 32.822C219.934 32.3316 219.843 31.8412 219.745 31.3537C219.737 31.3136 219.728 31.2706 219.72 31.2304C219.622 30.74 219.519 30.2468 219.413 29.7564C219.405 29.7191 219.396 29.6847 219.39 29.6474C219.281 29.1513 219.173 28.6581 219.058 28.1648C219.049 28.1333 219.044 28.1046 219.035 28.0731C218.918 27.5741 218.797 27.078 218.674 26.579C218.674 26.5732 218.674 26.5704 218.671 26.5646C218.637 26.427 218.603 26.2893 218.565 26.1546C218.565 26.146 218.563 26.1402 218.56 26.1316C218.439 25.6613 218.319 25.1939 218.193 24.7264C217.256 21.2479 216.139 17.821 214.836 14.4658C214.664 14.0241 214.49 13.5854 214.312 13.1437C214.2 12.8656 214.083 12.5903 213.968 12.3121C213.905 12.163 213.845 12.011 213.782 11.8619C213.633 11.5063 213.481 11.1536 213.327 10.8008C213.301 10.7435 213.278 10.689 213.252 10.6316C213.083 10.2445 212.911 9.86021 212.74 9.47594C212.74 9.4702 212.734 9.46447 212.731 9.45873C212.596 9.16336 212.465 8.86512 212.327 8.56974C212.459 8.87659 212.588 9.1863 212.72 9.49601C213.522 11.403 214.263 13.333 214.951 15.2831C214.974 15.3461 214.997 15.4121 215.02 15.4752C215.24 16.1032 215.452 16.7313 215.661 17.3621C215.661 17.3679 215.664 17.3708 215.667 17.3765C215.884 18.0361 216.094 18.6985 216.297 19.3609C216.306 19.3868 216.314 19.4154 216.323 19.4412C216.503 20.0263 216.675 20.6141 216.844 21.202C216.884 21.3454 216.924 21.4859 216.964 21.6293C217.108 22.1398 217.248 22.6502 217.382 23.1607C217.417 23.2868 217.451 23.4159 217.486 23.5421C217.652 24.1787 217.815 24.8153 217.967 25.452C220.613 36.3923 221.498 47.7398 220.487 58.9239C220.184 63.1997 219.479 67.4353 218.671 71.6365C217.726 75.809 216.681 79.97 215.237 83.9992C213.897 88.0627 212.164 91.9857 210.339 95.8486L208.125 100.116L205.708 104.271L203.97 106.964C199.834 113.342 194.916 119.183 189.497 124.497C189.855 124.141 190.216 123.792 190.568 123.43C190.101 123.901 189.626 124.368 189.15 124.833C189.076 124.904 189.001 124.979 188.927 125.05C188.44 125.524 187.95 125.991 187.455 126.456C181.205 132.269 174.179 137.215 166.721 141.336C159.208 145.368 151.223 148.511 142.965 150.61C134.694 152.658 126.184 153.702 117.663 153.722C109.145 153.702 100.633 152.664 92.3611 150.622C84.1008 148.534 76.1155 145.385 68.5999 141.365C61.1387 137.247 54.1129 132.3 47.8575 126.496C41.6308 120.671 35.9884 114.182 31.3341 107.013L29.5927 104.323L27.9801 101.552C26.8603 99.7314 25.9666 97.7843 24.9556 95.903C23.1254 92.0431 21.3954 88.1201 20.0492 84.0565C18.6028 80.0274 17.5603 75.8692 16.6065 71.6967C15.8017 67.4926 15.0914 63.2599 14.7849 58.9841C14.7391 58.4536 14.6961 57.9202 14.656 57.3868C14.6359 57.1144 14.6216 56.8448 14.6016 56.5724C14.5844 56.3114 14.5643 56.0505 14.55 55.7895C14.53 55.454 14.5157 55.1184 14.4985 54.7801C14.4899 54.5822 14.4784 54.3872 14.4698 54.1893C14.4555 53.8251 14.444 53.4609 14.4326 53.0967C14.4269 52.9275 14.4211 52.7612 14.4154 52.592C14.4039 52.1934 14.3982 51.7948 14.3925 51.3962C14.3925 51.2614 14.3868 51.1295 14.3839 50.9947C14.3782 50.5645 14.3782 50.1344 14.3782 49.7042C14.3782 49.601 14.3782 49.4977 14.3782 49.3945C14.3782 48.9299 14.3868 48.4654 14.3954 48.0008C14.3954 47.932 14.3954 47.866 14.3954 47.7972C14.4039 47.3211 14.4183 46.8422 14.4326 46.3662C14.4326 46.3117 14.4326 46.2544 14.4383 46.1999C14.4555 45.698 14.4756 45.199 14.5013 44.6972C14.5013 44.6656 14.5013 44.6341 14.5042 44.6025C14.53 44.072 14.5615 43.5444 14.5958 43.0167C14.5958 43.0167 14.5958 43.0138 14.5958 43.011C15.352 31.3021 18.0558 19.6993 22.5869 8.83644C22.6241 8.74181 22.6614 8.65004 22.6986 8.55827C22.4007 9.21498 22.1115 9.87742 21.8279 10.5399C21.7964 10.6116 21.7649 10.6861 21.7362 10.7578C21.5071 11.2969 21.2837 11.8389 21.0632 12.3809C21.0374 12.4469 21.0116 12.51 20.9858 12.5759C20.4932 13.8033 20.0206 15.0422 19.5767 16.2896C19.5767 16.2896 19.5767 16.2896 19.5767 16.2925C17.6147 21.7928 16.1253 27.4622 15.1257 33.2235C13.5991 41.7262 13.1752 50.424 13.7566 59.0587C14.0001 63.3832 14.6818 67.6676 15.4465 71.929C16.3602 76.1589 17.3712 80.383 18.789 84.481C20.1065 88.6105 21.8136 92.6052 23.6266 96.5425C24.6291 98.4639 25.517 100.448 26.6311 102.31L28.2351 105.14L29.9736 107.89C39.2879 122.556 52.4803 134.657 67.6805 143.04C75.3193 147.163 83.4478 150.404 91.8628 152.563C100.289 154.677 108.968 155.775 117.658 155.815C126.345 155.764 135.023 154.665 143.449 152.546C151.862 150.375 159.99 147.14 167.626 143.008L167.637 143.017Z" fill="#334251"/>
<path d="M31.2654 120.499C32.5657 119.826 33.6512 118.876 34.4389 117.712C34.4446 117.703 34.4532 117.695 34.4589 117.683C34.5735 117.511 34.6823 117.333 34.7854 117.153C32.3967 117.695 29.9765 117.861 27.4331 117.703C27.1409 117.686 26.8517 117.66 26.5624 117.629C26.4306 117.614 26.2989 117.597 26.1671 117.58C26.021 117.563 25.875 117.543 25.7318 117.523C25.5485 117.497 25.3652 117.468 25.1818 117.437C25.1045 117.425 25.0272 117.411 24.9498 117.397C24.7236 117.356 24.4973 117.316 24.271 117.27C24.0562 117.227 23.8414 117.187 23.6266 117.141C22.3492 116.857 21.0345 116.496 19.7685 115.997C20.9858 116.361 22.2375 116.648 23.4662 116.809C27.3787 117.345 31.105 116.863 34.5448 115.785C33.5195 114.732 31.8439 113.714 30.0681 112.845C29.1745 112.415 28.215 112.054 27.2956 111.761C26.3762 111.466 25.4625 111.265 24.6119 111.197C23.5435 111.111 22.4551 111.119 21.3925 111.219C20.3414 111.314 19.3103 111.506 18.3393 111.805C18.1188 111.873 17.904 111.945 17.692 112.025C17.6061 112.057 17.5202 112.094 17.4342 112.126C17.3168 112.172 17.1965 112.22 17.082 112.272C16.9731 112.321 16.8643 112.369 16.7554 112.421C16.6752 112.458 16.595 112.498 16.5177 112.539C16.3888 112.605 16.2628 112.671 16.1396 112.739C16.1053 112.759 16.0709 112.78 16.0365 112.8C15.0828 113.359 14.2579 114.061 13.6392 114.942C14.4183 115.948 15.4207 116.843 16.4432 117.672C17.4658 118.503 18.6 119.209 19.7342 119.794C21.9768 120.984 24.3054 121.609 26.0841 121.649C27.9658 121.698 29.7674 121.271 31.2654 120.491V120.499Z" fill="#334251"/>
<path d="M14.0631 9.61646C14.1376 10.2101 14.2579 10.775 14.4183 11.2855C14.593 11.7988 14.8049 12.2576 15.0427 12.6276C15.9048 13.9754 17.1851 14.8758 18.557 15.0708C18.6658 15.0852 18.7775 15.0967 18.8892 15.1053C18.8892 15.1053 18.895 15.1053 18.8978 15.1053C19.0095 15.111 19.1241 15.1139 19.2358 15.111C18.9952 14.8644 18.7632 14.6063 18.5398 14.3396C18.5284 14.3252 18.5169 14.3138 18.5083 14.2994C18.2935 14.0413 18.0844 13.7746 17.8868 13.5022C17.5803 13.0835 17.291 12.6505 17.0304 12.1945C16.4346 11.1277 15.9592 9.95485 15.6126 8.68445C15.8246 9.26373 16.048 9.8344 16.3201 10.3678C16.7583 11.2252 17.2595 11.9995 17.8324 12.7079C18.3451 13.333 18.9007 13.9037 19.4907 14.4313C19.5767 14.5059 19.6597 14.5833 19.7456 14.6579C19.823 14.3023 19.8545 13.8836 19.8487 13.4305C19.8573 12.9832 19.8316 12.5042 19.7657 12.0225C19.6339 11.0589 19.3504 10.0839 18.9179 9.36123C18.8492 9.24939 18.7804 9.13755 18.7059 9.02571C17.609 7.36817 15.9391 6.04615 14.2407 6.00027C14.212 6.11785 14.1863 6.23542 14.1605 6.35587C13.9485 7.40545 13.9285 8.55827 14.0631 9.62219V9.61646Z" fill="#334251"/>
<path d="M8.72428 20.2413C8.78443 20.5941 8.8589 20.9382 8.94483 21.2766C9.29139 22.6273 9.83272 23.8202 10.4542 24.5974C11.7689 26.2521 13.6764 27.1353 15.5267 26.86C15.289 26.665 15.0598 26.4614 14.8336 26.2549C14.7534 26.1832 14.676 26.1058 14.5987 26.0312C14.4555 25.8936 14.3152 25.7531 14.1748 25.6097C14.0832 25.5151 13.9944 25.4233 13.9056 25.3258C13.7767 25.1853 13.6507 25.0419 13.5275 24.8985C13.4473 24.8039 13.3614 24.7121 13.2841 24.6146C13.0778 24.3622 12.8745 24.1041 12.6797 23.8374C12.2615 23.2639 11.8749 22.6559 11.5197 22.0136C11.1617 21.3712 10.838 20.6944 10.5803 19.9918C10.8753 20.6256 11.2075 21.2479 11.5999 21.8272C12.8401 23.6797 14.3553 25.125 16.0566 26.275C16.2628 24.6347 15.5382 21.8788 14.4412 20.3446C13.0091 18.4232 10.8094 16.9234 8.72715 17.0954C8.62117 17.7665 8.59253 18.4748 8.62404 19.1803C8.64122 19.533 8.67273 19.8857 8.72142 20.2356L8.72428 20.2413Z" fill="#334251"/>
<path d="M214.513 23.5306C213.971 23.1349 213.396 22.8223 212.826 22.6502C210.577 21.9247 207.982 22.1254 206.321 23.3213C206.576 23.8174 206.911 24.302 207.303 24.7637C207.498 24.9931 207.71 25.2168 207.928 25.4348C208.134 25.6556 208.355 25.8678 208.578 26.0685C209.48 26.8743 210.497 27.5196 211.402 27.8465C213.221 28.4946 215.223 28.5089 216.712 27.6142C216.795 27.5655 216.878 27.5138 216.959 27.4565C216.652 27.3934 216.348 27.3217 216.045 27.2443C215.859 27.1984 215.675 27.1468 215.492 27.0923C215.389 27.0636 215.286 27.0349 215.186 27.0063C214.948 26.9346 214.71 26.86 214.475 26.7826C214.441 26.7711 214.404 26.7596 214.369 26.7482C214.109 26.6593 213.848 26.5675 213.59 26.47C213.401 26.3983 213.209 26.3295 213.023 26.2521C212.39 25.9911 211.772 25.7015 211.17 25.386C210.569 25.0677 209.984 24.7236 209.383 24.3594C209.981 24.6576 210.563 24.953 211.159 25.2082C212.92 25.9452 214.753 26.4098 216.626 26.6535C216.772 26.6707 216.916 26.6908 217.059 26.708C217.09 26.7109 217.122 26.7166 217.15 26.7195C216.718 25.6699 215.698 24.4024 214.51 23.5335L214.513 23.5306Z" fill="#334251"/>
<path d="M221.275 69.7753C223.432 71.04 226.241 70.9539 228.773 69.5803C229.581 69.1387 230.472 68.4361 231.302 67.55C231.314 67.5385 231.322 67.527 231.334 67.5156C231.457 67.3808 231.583 67.246 231.703 67.1026C231.749 67.051 231.792 66.9936 231.838 66.9392C231.927 66.8302 232.016 66.7241 232.104 66.6122C232.239 66.4373 232.371 66.2595 232.5 66.0731C233.611 64.4844 234.628 62.5774 235 60.6818C232.411 59.3455 228.856 60.18 226.021 61.9063C225.86 62.0038 225.7 62.1099 225.54 62.2246C225.497 62.2562 225.454 62.2906 225.408 62.3221C225.288 62.411 225.167 62.5028 225.05 62.6003C225.01 62.6319 224.973 62.6663 224.932 62.6978C224.801 62.8068 224.672 62.9215 224.546 63.0391C224.523 63.0591 224.5 63.0792 224.48 63.1022C222.781 64.6909 221.329 66.9564 220.759 68.6426C223.543 68.1178 226.327 67.1055 228.822 65.3562C229.61 64.8113 230.36 64.1747 231.099 63.5065C230.861 63.756 230.621 63.9998 230.38 64.2349C229.933 64.6737 229.481 65.0866 229.02 65.4795C228.994 65.5024 228.965 65.5254 228.939 65.5483C228.825 65.6458 228.707 65.7376 228.593 65.8322C228.524 65.8867 228.455 65.9441 228.387 65.9985C228.286 66.0788 228.183 66.1563 228.083 66.2337C227.994 66.3025 227.903 66.3685 227.811 66.4344C227.722 66.5004 227.633 66.5635 227.542 66.6294C227.427 66.7097 227.313 66.7872 227.198 66.8675C227.126 66.9162 227.055 66.965 226.983 67.0137C226.791 67.1399 226.599 67.2603 226.405 67.3779C225.978 67.6331 225.548 67.8712 225.116 68.0948C223.813 68.763 222.472 69.2878 221.106 69.675C221.163 69.7122 221.223 69.7438 221.283 69.7782L221.275 69.7753Z" fill="#334251"/>
<path d="M22.3635 8.34032C22.6929 7.49148 23.1053 6.66558 23.6008 5.87696C23.7498 5.64754 23.9073 5.42099 24.0705 5.19731C24.1221 5.12849 24.1737 5.05966 24.2252 4.99084C24.3455 4.83025 24.4715 4.67539 24.5976 4.51766C24.6548 4.44597 24.715 4.37428 24.7751 4.30259C25.1618 3.84662 25.5828 3.40212 26.0354 2.9777C25.6229 3.43654 25.2248 3.90111 24.8811 4.39149C24.3312 5.18011 23.8815 5.98593 23.5206 6.82331C23.1626 7.67502 22.8934 8.5468 22.6957 9.43006C23.0452 9.32969 23.4318 9.16336 23.83 8.94541C24.2281 8.74467 24.6377 8.49805 25.0329 8.21415C25.3537 7.98473 25.6602 7.7295 25.9466 7.4628C25.9466 7.4628 25.9437 7.46567 25.9409 7.46854C25.9494 7.45994 25.9552 7.4542 25.9638 7.4456C26.0497 7.36243 26.1356 7.27927 26.2187 7.19324C26.2387 7.17317 26.2559 7.15309 26.2731 7.13302C26.3447 7.05846 26.4134 6.98103 26.4793 6.9036C26.5022 6.87779 26.5251 6.84911 26.5481 6.82331C26.6082 6.75161 26.6626 6.67992 26.7199 6.60536C26.7428 6.57668 26.7657 6.54801 26.7858 6.51646C26.8574 6.41609 26.9233 6.31859 26.9863 6.21822C28.0775 4.41156 28.5702 2.13173 27.7653 0.505735C26.6254 0.786771 25.4625 1.35745 24.4859 2.0457C23.9989 2.38982 23.555 2.76262 23.1798 3.14116C22.8074 3.53691 22.5038 3.93839 22.289 4.32266C21.3754 5.94292 21.2551 7.78686 22.0599 9.1949C22.1515 8.90813 22.2547 8.62136 22.3635 8.34032Z" fill="#334251"/>
<path d="M61.7889 149.156C61.7889 149.156 61.7918 149.154 61.7946 149.151C62.0925 148.864 62.3703 148.563 62.631 148.25C62.6596 148.216 62.6882 148.181 62.714 148.147C62.8458 147.986 62.9689 147.82 63.0892 147.654C63.1293 147.596 63.1723 147.539 63.2124 147.482C63.284 147.378 63.3527 147.275 63.4186 147.169C63.4931 147.052 63.5647 146.931 63.6334 146.811C63.6792 146.73 63.7251 146.65 63.768 146.567C63.8482 146.421 63.9227 146.272 63.9943 146.122C64.0229 146.062 64.0487 146.002 64.0745 145.942C64.1375 145.804 64.1948 145.664 64.2492 145.523C64.2664 145.477 64.2865 145.428 64.3036 145.383C64.3695 145.202 64.4297 145.021 64.4869 144.838C64.5013 144.792 64.5156 144.743 64.5299 144.697C64.5843 144.508 64.633 144.319 64.6731 144.124C64.6817 144.086 64.6874 144.052 64.696 144.015C64.739 143.808 64.7762 143.602 64.802 143.392C64.5385 143.57 64.2721 143.742 64.0029 143.911C63.917 143.966 63.8311 144.018 63.7451 144.069C63.5561 144.184 63.3671 144.299 63.1752 144.41C63.0749 144.468 62.9747 144.525 62.8744 144.582C62.6882 144.689 62.5021 144.792 62.313 144.892C62.2128 144.947 62.1125 145.001 62.0123 145.053C61.7946 145.167 61.5741 145.276 61.3535 145.385C61.2819 145.42 61.2132 145.457 61.1445 145.489C60.8552 145.626 60.563 145.761 60.268 145.89C60.1821 145.927 60.0933 145.965 60.0074 146.002C59.7954 146.094 59.5806 146.183 59.3629 146.269C59.2455 146.315 59.1281 146.36 59.0106 146.403C58.8187 146.478 58.624 146.55 58.4292 146.619C58.3061 146.662 58.1829 146.707 58.0569 146.75C57.8535 146.819 57.6502 146.885 57.4468 146.951C57.3322 146.988 57.2177 147.026 57.1031 147.06C56.7938 147.155 56.4816 147.247 56.1665 147.33C56.0863 147.353 56.0033 147.37 55.9231 147.393C55.6796 147.456 55.4361 147.516 55.1898 147.573C55.0581 147.605 54.9235 147.634 54.7888 147.662C54.5884 147.705 54.3879 147.748 54.1874 147.789C54.0442 147.817 53.901 147.843 53.7549 147.869C53.5544 147.906 53.3539 147.938 53.1505 147.972C53.0102 147.995 52.8698 148.018 52.7266 148.038C52.4889 148.072 52.2512 148.101 52.0135 148.13C51.9046 148.144 51.7986 148.158 51.6898 148.17C50.5642 148.293 49.4128 148.356 48.2385 148.354C49.7221 148.222 51.1743 148.041 52.5548 147.725C57.0057 146.664 60.7463 144.657 63.98 142.027C62.4161 141.385 60.2537 140.918 57.9595 140.777C55.7111 140.576 53.3052 140.717 51.4406 141.23C51.2688 141.279 51.0969 141.333 50.9279 141.388C50.8764 141.405 50.8248 141.419 50.7761 141.437C50.653 141.477 50.5298 141.517 50.4038 141.56C50.3494 141.577 50.2978 141.597 50.2434 141.614C50.1059 141.663 49.9656 141.712 49.8281 141.764C49.7966 141.775 49.7651 141.786 49.7336 141.798C49.5617 141.864 49.387 141.933 49.218 142.002C49.198 142.01 49.1779 142.019 49.155 142.027C49.0061 142.088 48.8571 142.154 48.7082 142.217C48.671 142.234 48.6337 142.248 48.5994 142.265C48.4561 142.328 48.3158 142.394 48.1726 142.46C48.1468 142.472 48.1239 142.483 48.0981 142.495C47.7544 142.658 47.4165 142.83 47.0871 143.014C47.0813 143.017 47.0728 143.022 47.067 143.025C46.9095 143.114 46.752 143.203 46.5973 143.295C46.5858 143.301 46.5744 143.309 46.5629 143.315C43.9308 144.878 41.8628 147.023 41.1897 149.676C42.4786 150.421 43.9078 151.023 45.3628 151.508C46.835 151.967 48.353 152.274 49.8109 152.46C52.7639 152.776 55.4877 152.558 57.4353 151.823C59.1424 151.201 60.6174 150.275 61.7946 149.139L61.7889 149.156Z" fill="#334251"/>
<path d="M36.8362 83.6751C36.7789 83.6837 36.7245 83.6952 36.6672 83.7038C36.5297 83.7267 36.3951 83.7526 36.2576 83.7841C36.1946 83.7984 36.1345 83.8099 36.0714 83.8271C35.9254 83.8615 35.7822 83.9017 35.639 83.9418C35.5931 83.9562 35.5444 83.9676 35.4986 83.982C35.3182 84.0364 35.1377 84.0995 34.9573 84.1655C34.8857 84.1913 34.8169 84.22 34.7453 84.2487C34.6336 84.2917 34.5191 84.3376 34.4074 84.3863C34.3214 84.4236 34.2355 84.4609 34.1496 84.501C34.0551 84.544 33.9634 84.5899 33.8689 84.6329C33.7744 84.6788 33.6827 84.7218 33.5911 84.7706C33.5195 84.8079 33.4507 84.848 33.382 84.8853C33.1758 84.9971 32.9695 85.1176 32.7662 85.2438C32.7204 85.2724 32.6717 85.3011 32.6258 85.3298C32.5055 85.4072 32.3853 85.4875 32.265 85.5678C32.2249 85.5965 32.1848 85.6223 32.1447 85.651C31.5776 86.0496 31.0334 86.4941 30.5235 86.9816C30.5178 86.9873 30.5149 86.9902 30.5092 86.9959C29.7473 87.7243 29.0571 88.5445 28.4814 89.4335C27.6336 90.7125 27.161 92.4331 26.9519 94.1996C26.7686 95.9518 26.9519 97.6982 27.3873 98.9572C28.5186 97.7183 29.5898 96.4078 30.5579 95.0456C31.5346 93.6777 32.391 92.2697 33.2216 90.767C33.7285 89.835 34.161 88.8772 34.5763 87.9279C33.8775 89.987 32.9638 92.0316 31.9699 93.9788C31.4601 94.9567 30.9102 95.9231 30.3144 96.8723C29.7187 97.8215 29.1144 98.7335 28.447 99.6339C30.2686 99.4017 31.9327 98.461 33.319 97.1304C33.5424 96.9182 33.7572 96.6945 33.9634 96.4622C33.9691 96.4565 33.9749 96.4479 33.9806 96.4422C34.184 96.2128 34.3787 95.9776 34.5678 95.7339C34.5706 95.731 34.5735 95.7252 34.5763 95.7224C34.7539 95.4901 34.9258 95.2521 35.089 95.0054C35.1177 94.9624 35.1463 94.9166 35.175 94.8735C35.3325 94.6327 35.4872 94.386 35.6304 94.1337C36.4209 92.7801 36.9765 90.9734 37.3174 89.0951C37.4921 88.1516 37.5923 87.1967 37.5952 86.2761C37.6009 86.0439 37.6038 85.8116 37.6009 85.5821C37.5895 84.8968 37.5322 84.2286 37.4004 83.6092C37.2114 83.6235 37.0224 83.6493 36.8333 83.678L36.8362 83.6751Z" fill="#334251"/>
<path d="M30.4863 13.9381C30.5636 13.8435 30.6381 13.7488 30.7126 13.6542C30.724 13.637 30.7383 13.6227 30.7498 13.6054C30.83 13.4965 30.9073 13.3846 30.9761 13.2728C29.6385 12.0655 27.4073 11.6611 25.4053 12.0913C24.609 12.2605 23.7383 12.7165 22.9736 13.2957C22.5926 13.5854 22.2346 13.9008 21.9339 14.2249C21.9339 14.2249 21.931 14.2277 21.9281 14.2306C21.6446 14.5604 21.4069 14.8959 21.2436 15.2114C22.1401 15.2171 23.0308 15.1626 23.9159 15.0422C24.8124 14.9246 25.7174 14.7468 26.6053 14.4916C27.161 14.3338 27.7023 14.1302 28.2351 13.918C27.3013 14.3797 26.3332 14.7583 25.3394 15.0622C25.3394 15.0622 25.3394 15.0622 25.3365 15.0622C25.1761 15.1139 25.0129 15.1655 24.8496 15.2085C23.7068 15.5412 22.5411 15.7706 21.3467 15.8795C21.4498 15.9713 21.5587 16.0545 21.6704 16.1348C21.6704 16.1348 21.6732 16.1376 21.6761 16.1405C22.879 16.9893 24.5431 17.1557 26.107 16.7714C26.5108 16.671 26.9462 16.5018 27.3873 16.281C27.8427 16.0659 28.3067 15.7964 28.7506 15.4924C29.2719 15.1339 29.7617 14.721 30.1856 14.2736C30.2801 14.1733 30.3689 14.0729 30.4577 13.9725C30.4663 13.9639 30.472 13.9553 30.4806 13.9467L30.4863 13.9381Z" fill="#334251"/>
<path d="M1.12562 44.7631C1.15999 45.1216 1.20582 45.4829 1.27169 45.8414C1.36908 46.2802 1.48937 46.7218 1.62972 47.1548C1.90754 48.0209 2.26556 48.8668 2.67228 49.6469C3.45993 51.2069 4.54258 52.5002 5.55937 53.2516C7.51847 54.7084 9.84704 55.1959 11.8606 54.5621C11.8634 54.5621 11.8663 54.5621 11.872 54.5592C11.9579 54.5306 12.0467 54.5019 12.1327 54.4703C12.2386 54.4331 12.3475 54.39 12.4506 54.3442C10.8753 53.6416 9.38018 52.7239 7.98246 51.5912C6.60766 50.4584 5.38465 49.1049 4.2619 47.5362C4.84332 48.2245 5.43334 48.8898 6.07206 49.4748C8.09416 51.356 10.4514 52.6293 12.8917 53.4666C12.5079 51.4134 10.944 48.2933 9.03075 46.7505C6.68213 44.8434 3.606 43.6648 1.09984 44.5337C1.10557 44.6111 1.11703 44.6886 1.12276 44.766L1.12562 44.7631Z" fill="#334251"/>
<path d="M205.253 128.842C203.314 127.852 201.042 127.264 198.74 127.029C197.826 126.94 196.821 126.98 195.795 127.118C194.767 127.253 193.684 127.451 192.659 127.735C192.143 127.875 191.639 128.03 191.155 128.202C190.663 128.366 190.179 128.538 189.726 128.724C188.818 129.094 188.016 129.524 187.366 129.969C189.082 130.883 190.877 131.626 192.796 132.185C193.753 132.461 194.747 132.699 195.755 132.865C196.758 133.028 197.791 133.135 198.857 133.183C200.186 133.244 201.566 133.178 202.924 133.02C201.372 133.307 199.845 133.464 198.353 133.51C198.353 133.51 198.35 133.51 198.347 133.51C197.597 133.533 196.855 133.525 196.122 133.49C196.07 133.49 196.021 133.484 195.97 133.482C195.303 133.444 194.644 133.384 193.991 133.301C193.911 133.289 193.827 133.281 193.747 133.269C193.564 133.244 193.381 133.218 193.197 133.189C193.089 133.172 192.98 133.155 192.871 133.135C192.702 133.106 192.53 133.077 192.361 133.046C192.115 133 191.868 132.948 191.625 132.894C191.49 132.865 191.353 132.831 191.218 132.799C191.064 132.762 190.906 132.724 190.754 132.684C190.628 132.653 190.502 132.618 190.376 132.584C190.184 132.532 189.992 132.478 189.803 132.42C189.717 132.395 189.634 132.372 189.548 132.346C189.279 132.263 189.013 132.177 188.749 132.085C188.66 132.056 188.575 132.025 188.489 131.993C188.288 131.922 188.091 131.85 187.89 131.775C187.807 131.744 187.721 131.712 187.638 131.678C187.366 131.572 187.097 131.463 186.83 131.348C186.893 131.537 186.968 131.724 187.042 131.91C188.311 134.947 191.313 137.178 195.128 137.812C196.073 137.961 197.181 137.975 198.393 137.858C198.997 137.795 199.633 137.709 200.269 137.574C200.905 137.436 201.552 137.264 202.211 137.058C203.526 136.65 204.869 136.117 206.115 135.426C207.369 134.743 208.589 133.963 209.615 133.043C208.776 131.225 207.186 129.834 205.247 128.842H205.253Z" fill="#334251"/>
<path d="M183.562 141.239C181.698 140.725 179.292 140.585 177.043 140.786C174.749 140.929 172.587 141.394 171.023 142.036C171.08 142.085 171.14 142.131 171.2 142.176C174.391 144.734 178.077 146.693 182.445 147.734C183.826 148.052 185.275 148.23 186.762 148.362C184.969 148.365 183.236 148.213 181.566 147.929C180.509 147.751 179.478 147.516 178.475 147.235C178.455 147.229 178.435 147.224 178.418 147.218C177.725 147.02 177.046 146.799 176.379 146.555C176.29 146.524 176.198 146.489 176.11 146.455C175.929 146.386 175.746 146.317 175.568 146.246C175.445 146.197 175.325 146.145 175.205 146.094C174.958 145.991 174.712 145.884 174.468 145.775C174.311 145.704 174.153 145.632 173.996 145.56C173.87 145.5 173.747 145.44 173.621 145.38C173.443 145.294 173.266 145.205 173.091 145.113C172.996 145.064 172.899 145.015 172.804 144.967C172.544 144.826 172.283 144.686 172.028 144.539C171.954 144.496 171.879 144.453 171.805 144.408C171.601 144.29 171.401 144.167 171.2 144.043C171.123 143.995 171.046 143.949 170.971 143.9C170.711 143.736 170.45 143.567 170.195 143.395C170.224 143.605 170.261 143.814 170.301 144.02C171.006 147.465 173.692 150.427 177.565 151.838C179.509 152.572 182.233 152.79 185.189 152.474C186.644 152.288 188.162 151.978 189.637 151.522C190.955 151.084 192.246 150.542 193.435 149.891C193.558 149.822 193.687 149.759 193.807 149.69C192.751 145.529 188.268 142.618 183.559 141.242L183.562 141.239Z" fill="#334251"/>
<path d="M220.888 115.51C220.948 115.441 221.011 115.372 221.072 115.303C221.169 115.186 221.266 115.068 221.358 114.95C220.284 113.425 218.597 112.407 216.661 111.81C215.693 111.512 214.659 111.32 213.607 111.225C212.542 111.122 211.454 111.116 210.388 111.202C209.537 111.271 208.624 111.475 207.704 111.767C206.785 112.063 205.823 112.421 204.932 112.851C203.159 113.723 201.483 114.741 200.455 115.791C200.461 115.791 200.464 115.791 200.469 115.796C203.904 116.869 207.627 117.351 211.534 116.814C212.763 116.654 214.014 116.367 215.229 116.003C214.054 116.465 212.837 116.806 211.648 117.081C211.557 117.104 211.465 117.127 211.373 117.147C210.085 117.422 208.844 117.629 207.567 117.706C205.024 117.864 202.603 117.698 200.215 117.156C200.303 117.313 200.401 117.468 200.498 117.62C201.289 118.828 202.397 119.808 203.732 120.502C205.23 121.282 207.031 121.707 208.913 121.661C210.692 121.621 213.02 120.996 215.266 119.805C216.4 119.22 217.537 118.515 218.557 117.683C219.224 117.141 219.883 116.571 220.476 115.96C220.487 115.948 220.499 115.937 220.51 115.925C220.602 115.831 220.691 115.736 220.777 115.642C220.814 115.598 220.851 115.555 220.888 115.512V115.51Z" fill="#334251"/>
<path d="M218.611 94.6154C217.102 95.0112 215.363 95.8944 213.885 96.9641C213.722 97.0788 213.562 97.1964 213.401 97.314C213.353 97.3512 213.304 97.3857 213.255 97.4229C213.135 97.5147 213.015 97.6065 212.897 97.7011C212.808 97.7699 212.722 97.8388 212.637 97.9104C212.559 97.9735 212.482 98.0366 212.407 98.0997C212.321 98.1743 212.236 98.246 212.15 98.3205C212.121 98.3463 212.092 98.3721 212.064 98.398C211.872 98.57 211.686 98.7392 211.511 98.9113C211.015 99.3959 210.586 99.8834 210.265 100.354C211.935 100.575 213.613 100.635 215.332 100.514C217.042 100.391 218.815 100.093 220.545 99.5422C221.633 99.2038 222.71 98.7421 223.792 98.2402C223.008 98.6847 222.226 99.0833 221.438 99.4418C220.751 99.7544 220.058 100.033 219.364 100.279C219.287 100.308 219.207 100.334 219.13 100.359C218.869 100.448 218.608 100.532 218.348 100.609C218.256 100.638 218.164 100.666 218.073 100.692C217.738 100.79 217.4 100.879 217.062 100.959C215.925 101.237 214.79 101.429 213.662 101.544C212.536 101.659 211.382 101.676 210.259 101.627C210.359 101.75 210.465 101.865 210.574 101.983C212.528 104.073 215.658 104.971 218.946 104.351C220.55 104.03 222.569 103.098 224.434 101.684C225.096 101.18 225.746 100.618 226.367 100.015C226.619 99.7716 226.866 99.5221 227.106 99.2669C227.917 98.3664 228.63 97.3828 229.22 96.3705C226.797 93.9387 222.435 93.6462 218.62 94.6097L218.611 94.6154Z" fill="#334251"/>
<path d="M228.275 76.8614C226.743 76.9761 225.187 77.392 223.687 78.0057C222.501 78.4989 221.272 79.3736 220.184 80.3801C220.029 80.5235 219.874 80.6698 219.725 80.8189C219.625 80.9164 219.528 81.0167 219.43 81.1143C218.345 82.2155 217.394 83.3855 216.91 84.4322C218.457 84.3834 220.006 84.1942 221.556 83.8357C223.102 83.4744 224.678 82.9553 226.158 82.2069C227.095 81.7452 228.006 81.1745 228.911 80.5665C228.558 80.8533 228.2 81.1229 227.84 81.3838C226.193 82.5768 224.448 83.5088 222.664 84.2028C222.641 84.2114 222.615 84.2229 222.592 84.2315C222.415 84.3003 222.24 84.3634 222.063 84.4265C221.997 84.4494 221.934 84.4723 221.868 84.4953C221.713 84.5498 221.556 84.6014 221.398 84.6501C221.309 84.6788 221.223 84.7075 221.135 84.7333C220.994 84.7763 220.851 84.8193 220.708 84.8595C220.602 84.891 220.499 84.9197 220.393 84.9484C220.264 84.9828 220.132 85.0201 220.003 85.0516C219.886 85.0832 219.765 85.1118 219.645 85.1405C219.525 85.1692 219.407 85.1979 219.287 85.2237C219.153 85.2524 219.018 85.281 218.883 85.3069C218.777 85.3298 218.671 85.3499 218.565 85.3699C218.408 85.3986 218.25 85.4273 218.093 85.4531C218.01 85.4674 217.924 85.4818 217.841 85.4961C217.597 85.5334 217.357 85.5678 217.113 85.5994C217.211 85.6854 217.314 85.7657 217.417 85.846C219.531 87.4863 222.512 87.8333 225.396 86.778C226.11 86.517 226.886 86.1041 227.676 85.5649C228.458 85.0229 229.292 84.3662 230.011 83.5862C230.747 82.8119 231.448 81.9459 232.07 81.0225C232.382 80.5608 232.671 80.0847 232.935 79.6001C233.201 79.1155 233.402 78.6136 233.591 78.1146C232.302 77.1769 230.658 76.7983 228.925 76.8299C228.707 76.8328 228.49 76.8442 228.269 76.8586L228.275 76.8614Z" fill="#334251"/>
<path d="M168.311 154.969C167.792 154.582 167.254 154.218 166.698 153.877C166.139 153.527 165.567 153.2 164.982 152.899C164.052 152.42 162.972 152.039 161.829 151.749C160.683 151.454 159.457 151.207 158.257 151.069C157.06 150.94 155.854 150.84 154.743 150.848C154.187 150.851 153.652 150.88 153.148 150.932C152.641 150.977 152.159 151.032 151.718 151.124C152.42 151.978 153.165 152.804 153.958 153.593C154.746 154.367 155.582 155.107 156.47 155.81C157.358 156.509 158.3 157.172 159.297 157.788C160.297 158.408 161.336 158.941 162.445 159.449C163.825 160.071 165.32 160.584 166.833 160.989C165.177 160.69 163.567 160.214 162.052 159.687C161.812 159.604 161.574 159.512 161.336 159.42C161.038 159.308 160.743 159.188 160.451 159.067C160.417 159.053 160.385 159.039 160.351 159.024C160.087 158.912 159.824 158.798 159.566 158.68C159.463 158.631 159.36 158.583 159.26 158.534C159.059 158.439 158.862 158.347 158.667 158.25C158.355 158.095 158.045 157.935 157.742 157.771C155.029 156.323 152.626 154.462 150.564 152.357C150.55 152.572 150.544 152.79 150.544 153.005C150.535 156.767 152.689 160.407 156.464 162.726C157.407 163.317 158.569 163.788 159.907 164.175C161.242 164.562 162.748 164.851 164.318 164.955C165.893 165.078 167.557 165.078 169.187 164.869C170.006 164.771 170.822 164.639 171.627 164.473C172.423 164.289 173.2 164.06 173.956 163.796C173.85 161.525 172.753 159.394 171.117 157.536C170.298 156.607 169.345 155.746 168.311 154.972V154.969Z" fill="#334251"/>
<path d="M4.16451 30.2353C4.17311 31.7064 4.4853 33.2665 4.98367 34.6459C5.23858 35.38 5.58515 36.0682 5.96035 36.6676C6.3327 37.2698 6.73368 37.7831 7.13753 38.176C8.67846 39.6787 10.6547 40.4042 12.5021 40.1232C12.5021 40.1232 12.505 40.1232 12.5079 40.1232C12.611 40.106 12.7141 40.0888 12.8172 40.0687C12.926 40.0458 13.032 40.0199 13.138 39.9913C11.9751 39.2657 10.881 38.3882 9.88141 37.3845C9.85563 37.3644 9.83272 37.3415 9.80981 37.3214C8.5868 36.0768 7.51274 34.6258 6.65921 32.9711C7.0917 33.6479 7.53851 34.3017 8.03688 34.8982C8.82167 35.8503 9.71815 36.6819 10.6662 37.4046C11.6114 38.1273 12.6081 38.7409 13.6449 39.2629C13.6421 38.3251 13.2955 37.1121 12.8516 35.9421C12.4048 34.772 11.766 33.6249 11.0128 32.8363C9.10808 30.8662 6.49309 29.4754 4.16451 29.9485C4.16451 30.0432 4.16451 30.1378 4.16451 30.2324V30.2353Z" fill="#334251"/>
<path d="M106.195 157.771C104.978 159.626 103.554 161.387 101.913 162.99C101.919 162.985 101.922 162.982 101.927 162.976C101.658 163.24 101.386 163.498 101.105 163.75C100.825 164.005 100.538 164.258 100.243 164.502C99.6161 165.032 98.9631 165.545 98.2814 166.044C97.6026 166.532 96.898 166.988 96.1648 167.432C95.8612 167.616 95.5518 167.794 95.2396 167.972C95.0907 168.055 94.9418 168.138 94.79 168.221C94.6525 168.296 94.5121 168.37 94.3718 168.445C93.9307 168.677 93.4839 168.904 93.0285 169.119C92.5129 169.362 91.9917 169.598 91.4561 169.813C92.2036 169.425 92.9368 169.044 93.6471 168.62C94.3603 168.189 95.0477 167.745 95.7008 167.269C96.7462 166.503 97.7143 165.717 98.6165 164.863C98.943 164.553 99.2581 164.235 99.5674 163.917C99.5989 163.882 99.6304 163.851 99.6648 163.816C99.8051 163.673 99.9426 163.527 100.077 163.38C100.152 163.3 100.226 163.217 100.301 163.134C100.398 163.025 100.498 162.916 100.596 162.807C100.776 162.603 100.951 162.4 101.123 162.193C101.893 161.27 102.595 160.323 103.242 159.343C103.892 158.347 104.482 157.329 105.018 156.288C104.542 156.294 104.03 156.34 103.494 156.409C102.959 156.466 102.4 156.555 101.822 156.676C100.664 156.916 99.4356 157.278 98.2212 157.674C95.781 158.525 93.355 159.635 91.6222 161.032C91.3816 161.227 91.1439 161.425 90.909 161.628C90.8202 161.703 90.7371 161.78 90.6483 161.858C90.5051 161.984 90.3648 162.113 90.2244 162.242C90.1185 162.339 90.0154 162.437 89.9123 162.534C89.7891 162.652 89.6688 162.77 89.5514 162.89C89.4511 162.99 89.348 163.091 89.2478 163.194L89.242 163.2C89.242 163.2 89.242 163.2 89.2449 163.197C88.0677 164.416 87.0309 165.74 86.2261 167.143C84.9171 169.42 84.2297 171.863 84.6164 174.24C85.4642 174.352 86.332 174.418 87.2056 174.444C88.0792 174.47 88.9699 174.412 89.8464 174.341C90.7257 174.26 91.5964 174.151 92.4528 173.994C93.312 173.822 94.1512 173.615 94.9618 173.383C95.7724 173.145 96.5514 172.895 97.2961 172.591C98.0408 172.285 98.7454 171.958 99.3984 171.611C100.704 170.92 101.81 170.174 102.661 169.357C102.661 169.357 102.666 169.351 102.669 169.348C106.287 165.93 107.662 161.373 106.487 157.301C106.39 157.456 106.284 157.61 106.184 157.762L106.195 157.771Z" fill="#334251"/>
<path d="M143.366 161.032C141.634 159.638 139.208 158.525 136.767 157.674C135.55 157.278 134.321 156.914 133.167 156.676C132.589 156.558 132.027 156.466 131.494 156.409C130.959 156.34 130.446 156.294 129.971 156.288C130.509 157.329 131.099 158.347 131.746 159.343C132.394 160.323 133.098 161.273 133.866 162.193C134.636 163.114 135.467 164.005 136.372 164.863C137.274 165.715 138.242 166.503 139.288 167.269C139.941 167.745 140.628 168.192 141.341 168.62C142.052 169.044 142.785 169.425 143.535 169.813C141.868 169.142 140.293 168.319 138.83 167.432C138.609 167.298 138.397 167.163 138.182 167.025C138.182 167.025 138.182 167.025 138.179 167.022C137.965 166.888 137.753 166.75 137.541 166.609C137.263 166.423 136.985 166.239 136.713 166.044C136.031 165.548 135.378 165.032 134.751 164.502C132.248 162.405 130.163 159.942 128.496 157.307C128.438 157.504 128.392 157.702 128.35 157.9C127.464 161.817 128.874 166.099 132.314 169.351C133.167 170.171 134.275 170.92 135.584 171.614C136.237 171.96 136.942 172.287 137.687 172.594C138.431 172.898 139.21 173.148 140.021 173.386C140.832 173.618 141.674 173.825 142.533 173.997C143.389 174.154 144.26 174.263 145.139 174.344C146.016 174.415 146.907 174.473 147.78 174.447C148.654 174.421 149.522 174.355 150.369 174.243C150.756 171.866 150.069 169.423 148.76 167.146C147.445 164.86 145.529 162.775 143.364 161.035L143.366 161.032Z" fill="#334251"/>
<path d="M148.582 146.782C148.665 146.894 148.745 147.006 148.834 147.115C148.894 146.59 148.966 146.065 149.04 145.543C149.055 145.434 149.072 145.322 149.089 145.213C149.163 144.709 149.244 144.204 149.332 143.702C149.35 143.61 149.367 143.516 149.381 143.424C149.464 142.954 149.553 142.483 149.648 142.016C149.662 141.95 149.673 141.884 149.685 141.821C149.788 141.316 149.897 140.811 150.011 140.312C150.034 140.209 150.06 140.106 150.083 140.003C150.2 139.498 150.323 138.993 150.452 138.494C150.464 138.454 150.472 138.414 150.484 138.374C150.61 137.889 150.742 137.407 150.879 136.926C150.899 136.851 150.922 136.777 150.942 136.702C151.085 136.203 151.234 135.707 151.389 135.214C151.412 135.139 151.438 135.062 151.461 134.987C151.621 134.482 151.781 133.981 151.953 133.482C151.953 133.482 151.953 133.479 151.953 133.476C152.297 132.461 152.663 131.46 153.047 130.473C152.678 131.784 152.277 133.051 151.973 134.391C151.727 135.455 151.521 136.55 151.329 137.617C151.14 138.686 150.979 139.765 150.85 140.852C150.722 141.938 150.624 143.034 150.558 144.132C150.487 145.219 150.444 146.309 150.432 147.407C150.819 147.212 151.22 146.983 151.618 146.699C152.016 146.409 152.414 146.082 152.81 145.724C152.956 145.592 153.099 145.451 153.242 145.311C153.242 145.311 153.245 145.308 153.248 145.305C153.374 145.182 153.497 145.056 153.623 144.927C153.68 144.869 153.735 144.809 153.792 144.752C153.892 144.643 153.992 144.534 154.093 144.425C154.182 144.324 154.267 144.221 154.356 144.118C154.428 144.032 154.502 143.949 154.571 143.86C154.731 143.659 154.889 143.453 155.041 143.238C155.711 142.303 156.31 141.328 156.756 140.31C157.2 139.286 157.515 138.262 157.656 137.287C157.745 136.676 157.799 136.06 157.822 135.44C157.839 134.812 157.822 134.181 157.776 133.559C157.684 132.309 157.464 131.078 157.129 129.908C156.459 127.565 155.324 125.452 153.855 123.869C153.443 124.19 153.047 124.563 152.661 124.959C152.652 124.967 152.643 124.976 152.635 124.985C152.248 125.363 151.876 125.773 151.518 126.215C150.793 127.132 150.1 128.105 149.481 129.143C148.871 130.198 148.31 131.256 147.855 132.317C147.399 133.378 147.055 134.454 146.838 135.414C145.976 139.383 146.308 143.745 148.579 146.782H148.582Z" fill="#334251"/>
<path d="M127.754 151.238C127.794 151.324 127.831 151.413 127.874 151.499C128.08 150.889 128.301 150.281 128.524 149.678C128.55 149.61 128.576 149.541 128.602 149.472C128.819 148.89 129.046 148.313 129.28 147.74C129.312 147.665 129.341 147.588 129.372 147.513C129.613 146.931 129.856 146.352 130.111 145.778C130.131 145.735 130.151 145.689 130.171 145.646C131.549 142.546 133.127 139.578 134.845 136.762L134.86 136.736C135.178 136.217 135.498 135.701 135.825 135.191C135.496 135.824 135.166 136.458 134.837 137.092C134.51 137.72 134.192 138.36 133.892 139.013C133.411 140.063 132.961 141.147 132.537 142.217C132.11 143.281 131.712 144.362 131.343 145.46C130.973 146.555 130.632 147.671 130.32 148.792C130.005 149.899 129.721 151.023 129.467 152.156C129.91 152.041 130.374 151.887 130.85 151.686C131.325 151.474 131.809 151.221 132.296 150.937C133.27 150.372 134.247 149.684 135.14 148.852C136.332 147.794 137.38 146.544 138.154 145.256L138.159 145.248C138.285 145.036 138.406 144.823 138.517 144.611C138.526 144.594 138.535 144.58 138.543 144.562C138.652 144.356 138.752 144.149 138.844 143.943C138.852 143.926 138.858 143.909 138.867 143.891C138.958 143.682 139.044 143.473 139.119 143.263C140.004 140.803 140.327 138.061 140.127 135.5C139.927 132.931 139.196 130.496 138.019 128.535C137.532 128.776 137.048 129.065 136.573 129.398C136.097 129.731 135.616 130.063 135.149 130.45C134.682 130.832 134.224 131.256 133.774 131.692C133.594 131.858 133.419 132.033 133.244 132.208C133.164 132.289 133.081 132.372 133.001 132.455C132.818 132.644 132.634 132.836 132.457 133.034C132.03 133.499 131.623 134.001 131.228 134.485C130.836 134.967 130.463 135.46 130.117 135.962C129.424 136.96 128.836 137.992 128.404 138.939C126.637 142.908 126.007 147.568 127.757 151.238H127.754Z" fill="#334251"/>
<path d="M204.05 13.3187C204.574 14.136 205.364 14.8844 206.238 15.4867C206.682 15.7935 207.146 16.0602 207.601 16.2753C208.042 16.4961 208.478 16.6653 208.882 16.7657C210.405 17.1385 212.021 16.9922 213.215 16.2007C213.215 16.2007 213.227 16.1921 213.229 16.1893C213.373 16.0946 213.51 15.9885 213.642 15.8738C213.375 15.8509 213.112 15.8165 212.851 15.782C212.717 15.7648 212.585 15.7419 212.45 15.7189C212.333 15.6989 212.215 15.6817 212.098 15.6587C211.926 15.6272 211.754 15.5928 211.582 15.5584C211.519 15.544 211.456 15.5297 211.393 15.5182C211.193 15.4752 210.995 15.4293 210.798 15.3777C210.58 15.3232 210.359 15.2659 210.142 15.2028C208.976 14.8787 207.842 14.4486 206.753 13.9094C207.289 14.1188 207.828 14.3224 208.386 14.483C209.277 14.7382 210.179 14.916 211.076 15.0336C211.961 15.1569 212.851 15.2114 213.748 15.2028C213.585 14.8844 213.347 14.5489 213.06 14.2191C212.76 13.8951 212.402 13.5768 212.021 13.29C211.256 12.7136 210.385 12.2548 209.589 12.0856C207.587 11.6554 205.356 12.0626 204.018 13.2671C204.027 13.2843 204.038 13.2957 204.05 13.3129V13.3187Z" fill="#334251"/>
<path d="M22.9077 49.0876C22.6442 49.34 22.3721 49.5838 22.1 49.8275C22.0112 49.9049 21.9224 49.9824 21.8336 50.0598C21.6159 50.2491 21.3954 50.4326 21.172 50.6133C21.0889 50.6821 21.003 50.7509 20.92 50.8197C20.6192 51.0606 20.3127 51.2987 20.0063 51.5309C18.663 52.5547 17.2137 53.4638 15.6785 54.2438C17.8581 55.0181 20.4302 54.3413 22.5067 52.916C23.1597 52.4658 23.8099 51.832 24.4372 51.1008C24.4629 51.0721 24.4887 51.0406 24.5145 51.009C24.6319 50.8714 24.7465 50.728 24.8639 50.5817C24.8954 50.5416 24.9269 50.5014 24.9584 50.4613C25.0959 50.2835 25.2334 50.1057 25.3652 49.9222C25.8005 49.3056 26.1872 48.6546 26.4994 47.9922C26.6569 47.6595 26.7915 47.3269 26.9089 46.9913C27.0407 46.6587 27.1524 46.326 27.2355 45.9963C27.0894 45.9389 26.9376 45.8873 26.7829 45.8414C24.4715 45.1445 21.4584 45.6865 19.127 47.1519C19.0095 47.2265 18.895 47.3039 18.7804 47.39C18.6973 47.4502 18.6172 47.519 18.5341 47.585C18.5054 47.6079 18.4739 47.6309 18.4453 47.6567C18.3365 47.7484 18.2276 47.8459 18.1216 47.9492C18.0128 48.0524 17.9068 48.1585 17.8009 48.2704C16.4232 49.7271 15.3205 51.8464 15.1945 53.415C17.6004 52.483 19.823 51.2556 21.9711 49.6985C22.6327 49.2138 23.2514 48.6804 23.8586 48.1442C23.5607 48.4567 23.2543 48.7636 22.9392 49.0618C22.9421 49.059 22.9449 49.0561 22.9478 49.0532C22.9363 49.0647 22.922 49.0762 22.9077 49.0905V49.0876Z" fill="#334251"/>
</svg>
