<svg width="190" height="79" fill="none" xmlns="http://www.w3.org/2000/svg"><path fill-rule="evenodd" clip-rule="evenodd" d="M62.742.258v15.8L39.948 38.571 17.05 16.058V.258h15.37l7.528 7.332L47.372.258h15.37zm-4.391 4.234h-6.692v7.332h6.692V4.492zm-10.979 7.332V6.351L36.498 16.988l3.45 3.407 7.424-7.332v-1.239zM32.42 6.351v6.816l.941.93 3.45-3.409-4.39-4.337zm-4.287-1.859h-6.691v7.332h6.691V4.492zm0 11.566H23.22l10.56 10.327 3.033-2.995-7.424-7.332h-1.255zm11.71 10.43-3.031 2.995 3.136 3.201 16.73-16.522H50.3l-7.424 7.332-3.032 2.994zM17.05 78.742V62.838l22.794-22.512L62.638 62.84v15.903h-15.37l-7.424-7.332-7.424 7.332H17.05zm4.392-4.338h6.691v-7.332h-6.691v7.332zm10.978-7.228v5.473l10.874-10.637-3.45-3.407-7.424 7.331v1.24zm14.952 5.473v-6.816l-.941-.93-3.45 3.409 4.391 4.337zm4.392 1.755h6.691v-7.332h-6.691v7.332zm-.105-11.565h4.914l-10.56-10.327-3.032 2.995 7.423 7.332h1.255zm-11.71-10.327 3.032-3.098-3.033-3.098L23.22 62.839h6.274l7.423-7.332 3.032-2.995zM72.152 39.5l7.423-7.332v-15.18H63.58L40.785 39.5 63.58 62.012H79.68v-15.18L72.153 39.5zm-4.287-18.278h7.423v6.609h-7.423v-6.61zM66.61 32.065h6.901l-4.392 4.337-3.45-3.408.94-.93zm-3.032-9.088v6.093l-7.424 7.332-3.032-2.995 10.456-10.43zm0 28.089v4.957L46.849 39.5l3.137-3.098 3.032 2.995 3.032 2.994 7.424 7.332v1.343h.105zM59.187 39.5l3.45-3.408 10.875 10.74H66.716L59.187 39.5zM75.29 57.778h-7.423V51.17h7.423v6.61zM.217 16.884h15.997l22.794 22.513-22.794 22.615H.217v-15.18L7.64 39.5.217 32.065v-15.18zm11.71 4.338H4.504v6.609h7.423v-6.61zM4.504 57.778h7.423V51.17H4.504v6.61zm7.423-10.946h1.255l1.046-.93-3.45-3.407-4.392 4.337h5.541zm0-14.767H6.386l10.77 10.74 3.45-3.408-7.424-7.332h-1.255zm4.287 19v4.854L26.67 45.49l-3.032-2.994-7.424 7.332v1.239zm7.528-14.56 3.032 2.995 3.137 3.098 3.137-3.098-16.73-16.523v6.197l7.424 7.331z" fill="url(#a)"/><path d="M106.319 26.105h-5.262l-1.053 2.391h-2.736l5.052-11.227h2.631l5.052 11.227h-2.737l-.947-2.39zm-.842-1.975-1.789-4.262-1.789 4.262h3.578zM114.738 19.452v3.015H120v2.079h-5.262V28.6h-2.632V17.373h8.631v2.08h-5.999zM125.896 19.452v3.015h5.262v2.079h-5.262V28.6h-2.632V17.373h8.631v2.08h-5.999zM134.526 17.373h2.631V28.6h-2.631V17.373zM140.63 17.373h2.631v9.148h5.684V28.6h-8.315V17.373zM151.261 17.373h2.632V28.6h-2.632V17.373zM164.945 26.105h-5.262l-1.053 2.391h-2.737l5.053-11.227h2.631l5.052 11.227h-2.737l-.947-2.39zm-.842-1.975-1.789-4.262-1.789 4.262h3.578zM172.418 19.452h-3.684v-2.079h9.894v2.08h-3.684V28.6h-2.631v-9.148h.105zM189.783 26.52v2.08h-8.841V17.373h8.631v2.08h-6v2.39h5.262v2.08h-5.262v2.598h6.21zM108.74 40.866c.315.52.526 1.04.526 1.767 0 .936-.421 1.768-1.158 2.287-.737.52-1.894.832-3.368.832h-5.894V34.525h5.578c1.369 0 2.421.312 3.158.832.737.52 1.158 1.247 1.158 2.183 0 .52-.106 1.04-.421 1.455a3.743 3.743 0 0 1-1.158 1.04c.737.104 1.158.416 1.579.831zm-7.263-4.366v2.6h2.632c.631 0 1.158-.105 1.473-.313.316-.208.526-.52.526-1.04 0-.519-.21-.727-.526-.935-.315-.208-.842-.312-1.473-.312h-2.632zm4.631 6.965c.316-.208.527-.624.527-1.04 0-.935-.737-1.35-2.105-1.35h-3.053v2.806h3.053c.737-.104 1.263-.208 1.578-.416zM113.37 44.608c-.947-.935-1.368-2.182-1.368-3.846v-6.34h2.631v6.236c0 1.975.842 3.015 2.526 3.015.842 0 1.474-.208 1.895-.728.421-.52.631-1.247.631-2.287v-6.237h2.632v6.341c0 1.664-.421 2.911-1.369 3.846-.947.936-2.21 1.352-3.789 1.352-1.684 0-2.947-.52-3.789-1.352zM126.843 45.544c-.843-.208-1.474-.52-2-.935l.842-1.976c.526.312 1.053.624 1.789.832a6.683 6.683 0 0 0 2 .312c.736 0 1.263-.104 1.684-.312.315-.208.526-.52.526-.832 0-.311-.105-.52-.315-.623-.211-.208-.527-.312-.842-.416a9.197 9.197 0 0 0-1.368-.312c-.843-.208-1.58-.416-2.106-.623a4.42 4.42 0 0 1-1.474-.936c-.421-.416-.631-1.04-.631-1.767 0-.624.21-1.248.527-1.767.315-.52.947-.936 1.578-1.248.737-.312 1.579-.416 2.631-.416.737 0 1.474.104 2.106.208.736.208 1.262.416 1.789.728l-.842 1.975c-1.053-.624-2.106-.832-3.157-.832-.738 0-1.264.104-1.685.312-.316.208-.527.52-.527.936 0 .416.211.623.632.831.421.208 1.053.416 1.895.52.842.208 1.578.416 2.105.624.526.208 1.052.52 1.473.936.421.415.632 1.039.632 1.767 0 .623-.211 1.247-.526 1.767-.317.52-.947.935-1.685 1.247-.736.312-1.578.416-2.631.416a6.984 6.984 0 0 1-2.42-.416zM136.842 34.525h2.631v11.227h-2.631V34.525zM153.471 34.525v11.227h-2.21l-5.684-6.86v6.86h-2.631V34.525h2.21l5.684 6.861v-6.86h2.631zM165.787 43.673v2.079h-8.841V34.525h8.631v2.08h-6v2.39h5.262v1.975h-5.262v2.703h6.21zM169.786 45.544c-.843-.208-1.474-.52-2-.935l.842-1.976c.526.312 1.053.624 1.789.832a6.683 6.683 0 0 0 2 .312c.736 0 1.263-.104 1.684-.312.315-.208.526-.52.526-.832 0-.311-.105-.52-.315-.623-.211-.104-.527-.312-.843-.416-.316-.104-.737-.208-1.369-.312-.841-.208-1.578-.416-2.104-.623a4.42 4.42 0 0 1-1.474-.936c-.421-.416-.631-1.04-.631-1.767 0-.624.21-1.248.527-1.767.315-.52.947-.936 1.578-1.248.736-.312 1.579-.416 2.631-.416.737 0 1.474.104 2.106.208.736.208 1.262.416 1.789.728l-.842 1.975c-1.053-.624-2.106-.832-3.157-.832-.738 0-1.264.104-1.685.312-.316.208-.527.52-.527.936 0 .416.211.623.632.831.421.208 1.053.416 1.895.52.842.208 1.578.416 2.105.624.526.208 1.052.52 1.473.936.421.415.632 1.039.632 1.767 0 .623-.211 1.247-.526 1.767-.317.52-.947.935-1.685 1.247-.736.312-1.578.416-2.631.416a6.984 6.984 0 0 1-2.42-.416zM180.941 45.544c-.842-.208-1.474-.52-2-.935l.843-1.976c.525.312 1.051.624 1.789.832a6.677 6.677 0 0 0 1.999.312c.737 0 1.263-.104 1.684-.312.316-.208.526-.52.526-.832 0-.311-.104-.52-.315-.623-.211-.208-.527-.312-.842-.416-.316-.104-.738-.208-1.368-.312-.842-.208-1.58-.416-2.106-.623a4.435 4.435 0 0 1-1.473-.936c-.421-.416-.632-1.04-.632-1.767 0-.624.211-1.248.527-1.767.315-.52.947-.936 1.578-1.248.737-.312 1.579-.416 2.632-.416.736 0 1.473.104 2.105.208.736.208 1.262.416 1.789.728l-.842 1.975c-1.053-.624-2.105-.832-3.158-.832-.736 0-1.262.104-1.683.312-.317.208-.527.52-.527.936 0 .416.21.623.631.831.421.208 1.053.416 1.895.52.842.208 1.579.416 2.106.624.525.208 1.051.52 1.472.936.421.415.632 1.039.632 1.767 0 .623-.211 1.247-.526 1.767-.316.52-.948.935-1.684 1.247-.737.312-1.579.416-2.631.416-.632 0-1.579-.104-2.421-.416zM101.161 60.929c-.947-.52-1.684-1.144-2.21-2.08-.526-.83-.842-1.87-.842-3.014 0-1.143.316-2.079.842-3.014a6.048 6.048 0 0 1 2.21-2.08c.948-.52 2-.727 3.158-.727.947 0 1.894.208 2.631.52.842.312 1.474.831 2 1.455l-1.684 1.56c-.737-.832-1.684-1.352-2.842-1.352-.737 0-1.368.104-1.894.416a3.606 3.606 0 0 0-1.264 1.247c-.315.52-.42 1.144-.42 1.871 0 .728.105 1.352.42 1.871.316.52.737.936 1.264 1.248.526.312 1.157.416 1.894.416 1.158 0 2.105-.416 2.842-1.352l1.684 1.56a5.49 5.49 0 0 1-2 1.455c-.842.312-1.684.52-2.631.52a4.68 4.68 0 0 1-3.158-.52zM111.58 50.222h2.631v9.148h5.684v2.078h-8.315V50.222zM123.265 60.305c-.948-.935-1.369-2.183-1.369-3.846v-6.341h2.631v6.237c0 1.975.842 3.015 2.527 3.015.842 0 1.473-.208 1.894-.728.422-.52.632-1.248.632-2.287v-6.237h2.631v6.34c0 1.664-.421 2.912-1.369 3.847-.947.936-2.21 1.351-3.788 1.351-1.579 0-2.842-.415-3.789-1.351zM145.577 56.667c.315.52.526 1.04.526 1.767 0 .936-.422 1.767-1.158 2.287s-1.895.831-3.368.831h-5.894v-11.33h5.578c1.368 0 2.421.312 3.157.831.738.52 1.159 1.248 1.159 2.183 0 .52-.106 1.04-.421 1.456a3.747 3.747 0 0 1-1.159 1.04c.632.103 1.159.415 1.58.935zm-7.263-4.47v2.599h2.632c.631 0 1.157-.104 1.473-.312.316-.208.527-.52.527-1.04s-.211-.727-.527-.935c-.316-.208-.842-.312-1.473-.312h-2.632zm4.632 6.964c.315-.207.525-.623.525-1.039 0-.936-.736-1.351-2.105-1.351h-3.052v2.806h3.052c.632-.104 1.158-.207 1.58-.416zM148.629 61.137c-.316-.312-.421-.624-.421-1.144 0-.416.105-.831.421-1.143.316-.312.632-.416 1.158-.416.421 0 .842.104 1.157.416.317.312.421.623.421 1.143 0 .416-.104.832-.421 1.144-.315.312-.63.416-1.157.416-.421 0-.842-.104-1.158-.416z" fill="#fff"/><defs><linearGradient id="a" x1=".217" y1=".259" x2="78.694" y2="79.716" gradientUnits="userSpaceOnUse"><stop stop-color="#EA84CA"/><stop offset=".441" stop-color="#AE55CC"/><stop offset="1" stop-color="#6219CF"/></linearGradient></defs></svg>