<svg width="163" height="35" fill="none" xmlns="http://www.w3.org/2000/svg"><path d="m13.444 13.122 5.15-4.38 5.254 4.359 1.749 1.483-.01-6.73L18.575 0 11.6 7.882l.014 6.727 1.83-1.487z" fill="url(#a)"/><path d="m37.323 20.94-7.007-7.853.024 13.024-4.726-2.438-.007-3.932-7-4.443-6.986 4.47.01 3.933-4.628 2.455-.024-13.024L0 21.014.028 35l6.986-2.638 4.628-1.756 6.99-2.638 6.996 2.61 4.723 1.739 7 2.61-.028-13.986z" fill="url(#b)"/><path d="m25.586 7.854.014 6.73-1.752-1.483-5.255-4.359L18.576 0l7.01 7.854z" fill="url(#c)"/><path d="m25.614 23.673 4.726 2.438-.024-13.024 7.007 7.854.028 13.985-6.997-2.61-4.722-1.738-6.997-2.61-.024-12.674 7 4.443.003 3.936z" fill="url(#d)"/><path d="m52.285 29.742-3.32.007-.039-20.454c-.007-2.799 1.302-4.198 3.926-4.202L55.3 5.09c2.624-.004 3.936 1.392 3.943 4.187l.038 20.455-3.323.003-.017-9.004-3.758.007.018 9.004h.084zm3.736-11.981-.017-8.218C56 8.581 55.563 8.144 54.6 8.147h-.875c-.962.004-1.4.441-1.396 1.403l.018 8.218 3.673-.007zM63.213 29.721l-.049-24.649 5.769-.01c3.061-.007 4.635 1.564 4.642 4.712l.032 16.344c.003 2.361-1.305 3.586-3.925 3.593l-6.469.01zm3.226-2.98 2.449-.004c.874 0 1.311-.353 1.308-1.14l-.032-15.732c-.003-1.224-.528-1.746-1.49-1.746l-2.274.004.039 18.618zM83.28 11.677l-.004-2.186c-.004-.962-.44-1.487-1.403-1.483h-.612c-.962.003-1.396.528-1.396 1.49l.007 4.107c0 .437.088.787.262.962.175.175.438.35.875.608l3.148 1.655c.7.35 1.137.696 1.487.871.262.175.525.437.7.784.175.35.262.874.266 1.749l.01 5.244c.007 2.798-1.301 4.198-4.012 4.205l-2.012.003c-2.624.004-3.935-1.48-3.942-4.537l-.004-1.225 3.32-.006.004 1.311c.003.962.528 1.396 1.49 1.396h.612c.875 0 1.312-.44 1.308-1.4l-.007-4.194c0-.437-.087-.787-.262-.961-.175-.175-.437-.35-.875-.61l-3.148-1.741c-.7-.35-1.224-.697-1.487-.959-.35-.262-.525-.612-.7-.958-.174-.438-.178-.962-.178-1.575l-.01-5.069c-.007-2.798 1.301-4.197 3.925-4.201l2.099-.003c2.623-.004 3.935 1.392 3.942 4.187l.004 2.361-3.408.007v.168z" fill="#fff"/><path d="m90.657 29.665-.049-24.648 8.13-.014.007 2.973-4.894.01.014 7.518 4.282-.007.007 2.974-4.282.007.017 8.217 4.895-.01.007 2.973-8.134.007z" fill="url(#e)"/><path d="m108.82 19.492 3.033-14.514 3.67-.007.049 24.649-3.32.007.318-16.173-2.424 11.716-2.624.003-2.47-11.708.382 16.169-3.32.007-.049-24.649 3.67-.007 3.085 14.507z" fill="url(#f)"/><path d="m119.542 4.964 6.031-.01c2.624-.004 4.023 1.392 4.03 4.187l.014 7.343c.007 2.798-1.301 4.198-3.925 4.201l-2.711.004.017 8.917-3.319.007-.049-24.649h-.088zm3.257 12.755 2.099-.004c.875 0 1.312-.44 1.308-1.4l-.014-6.905c-.003-.962-.528-1.396-1.49-1.396l-1.924.004.021 9.7z" fill="url(#g)"/><path d="M133.049 29.585 133 4.936l3.32-.007.049 24.649-3.32.007z" fill="url(#h)"/><path d="M146.811 4.912c2.536-.004 3.761 1.392 3.768 4.187l.01 6.118c.004 2.187-.605 3.499-1.913 4.11l2.291 10.223-3.145.007-2.204-9.96-2.011.004.017 9.963-3.32.007-.049-24.649 6.556-.01zm-3.124 11.89 2.187-.003c.962-.004 1.483-.616 1.483-1.753l-.011-5.331c-.003-1.225-.528-1.746-1.49-1.746l-2.186.004.017 8.83z" fill="url(#i)"/><path d="m154.29 29.543-.049-24.649 8.13-.014.007 2.974-4.894.01.014 7.518 4.282-.007.007 2.973-4.282.007.018 8.218 4.894-.01.007 2.973-8.134.007z" fill="url(#j)"/><defs><linearGradient id="a" x1="-.001" y1="17.502" x2="37.354" y2="17.502" gradientUnits="userSpaceOnUse"><stop stop-color="#F28F1C"/><stop offset="1" stop-color="#FFD43E"/></linearGradient><linearGradient id="b" x1="0" y1="17.5" x2="37.349" y2="17.5" gradientUnits="userSpaceOnUse"><stop stop-color="#F28F1C"/><stop offset="1" stop-color="#FFD43E"/></linearGradient><linearGradient id="c" x1=".082" y1="17.515" x2="99.54" y2="17.091" gradientUnits="userSpaceOnUse"><stop stop-color="#F28F1C"/><stop offset="1" stop-color="#FFD43E"/></linearGradient><linearGradient id="d" x1="18.623" y1="24.037" x2="37.328" y2="24.001" gradientUnits="userSpaceOnUse"><stop stop-color="#F28F1C"/><stop offset="1" stop-color="#FFD43E"/></linearGradient><linearGradient id="e" x1="49.28" y1="17.323" x2="1043.97" y2="-9.018" gradientUnits="userSpaceOnUse"><stop stop-color="#F28F1C"/><stop offset="1" stop-color="#FFD43E"/></linearGradient><linearGradient id="f" x1="-47.131" y1="17.352" x2="555.721" y2="7.677" gradientUnits="userSpaceOnUse"><stop stop-color="#F28F1C"/><stop offset="1" stop-color="#FFD43E"/></linearGradient><linearGradient id="g" x1="-276.735" y1="17.375" x2="531.295" y2="-.002" gradientUnits="userSpaceOnUse"><stop stop-color="#F28F1C"/><stop offset="1" stop-color="#FFD43E"/></linearGradient><linearGradient id="h" x1="-1378.42" y1="17.401" x2="1029.29" y2="-137.422" gradientUnits="userSpaceOnUse"><stop stop-color="#F28F1C"/><stop offset="1" stop-color="#FFD43E"/></linearGradient><linearGradient id="i" x1="48.926" y1="17.315" x2="162.424" y2="17.315" gradientUnits="userSpaceOnUse"><stop stop-color="#FF9000"/><stop offset="1" stop-color="#FFD33A"/></linearGradient><linearGradient id="j" x1="48.926" y1="17.315" x2="162.424" y2="17.315" gradientUnits="userSpaceOnUse"><stop stop-color="#FF9000"/><stop offset="1" stop-color="#FFD33A"/></linearGradient></defs></svg>