<svg width="250" height="54" fill="none" xmlns="http://www.w3.org/2000/svg"><path d="m20.692 20.021 7.926-6.682 8.088 6.65 2.692 2.264-.016-10.27L28.592 0 17.854 12.026l.021 10.264 2.816-2.269z" fill="#fff" fill-opacity=".85"/><path d="M57.447 31.95 46.662 19.969l.037 19.872-7.274-3.72-.01-6-10.775-6.779-10.753 6.822.016 6-7.123 3.746-.038-19.872L0 32.063l.043 21.34 10.753-4.025 7.123-2.68 10.759-4.024 10.768 3.982 7.27 2.653L57.49 53.29l-.043-21.34z" fill="#fff" fill-opacity=".85"/><path d="m39.382 11.983.021 10.27-2.697-2.264-8.088-6.65L28.591 0l10.79 11.983z" fill="#fff" fill-opacity=".85"/><path d="m39.425 36.12 7.274 3.72-.037-19.872 10.785 11.983.043 21.34-10.77-3.982-7.268-2.653-10.769-3.982-.038-19.338 10.775 6.779.005 6.005zM80.476 45.38l-5.11.011-.06-31.209c-.01-4.27 2.004-6.405 6.042-6.41l3.77-.006c4.038-.005 6.057 2.125 6.068 6.39l.059 31.208-5.115.006-.027-13.74-5.783.011.027 13.74h.129zm5.75-18.28L86.2 14.56c-.006-1.468-.679-2.135-2.16-2.13h-1.346c-1.48.006-2.153.673-2.148 2.14l.027 12.539 5.654-.01zM97.297 45.348 97.222 7.74l8.879-.016c4.711-.011 7.134 2.386 7.145 7.19l.048 24.937c.006 3.602-2.008 5.47-6.041 5.481l-9.956.016zm4.964-4.547 3.77-.006c1.346 0 2.019-.539 2.013-1.74l-.048-24.003c-.005-1.868-.813-2.663-2.294-2.663l-3.5.005.059 28.407zM128.182 17.817l-.005-3.336c-.006-1.468-.679-2.268-2.159-2.263h-.943c-1.48.005-2.148.806-2.148 2.274l.011 6.266c0 .667.134 1.2.404 1.468.269.267.673.534 1.346.929l4.846 2.524c1.077.534 1.75 1.062 2.288 1.33a3.18 3.18 0 0 1 1.077 1.195c.269.534.404 1.334.409 2.669l.016 8c.011 4.27-2.003 6.406-6.176 6.417l-3.096.005c-4.038.005-6.057-2.258-6.068-6.923l-.005-1.868 5.11-.01.005 2c.005 1.469.813 2.13 2.294 2.13h.942c1.346 0 2.019-.672 2.014-2.135l-.011-6.4c0-.666-.135-1.2-.404-1.467-.269-.267-.673-.534-1.346-.929l-4.846-2.658c-1.077-.534-1.884-1.062-2.288-1.462-.539-.4-.808-.935-1.077-1.463-.269-.667-.275-1.468-.275-2.402l-.016-7.734c-.011-4.27 2.003-6.405 6.041-6.41l3.231-.006c4.038-.005 6.058 2.124 6.068 6.39l.006 3.602-5.245.01v.257zM139.538 45.263l-.075-37.609 12.513-.021.011 4.537-7.533.016.022 11.47 6.59-.01.011 4.537-6.591.01.027 12.538 7.533-.016.011 4.537-12.519.011zM167.494 29.741l4.668-22.146 5.649-.01.075 37.608-5.11.011.49-24.676-3.731 17.876-4.039.005-3.801-17.864.587 24.67-5.11.01-.075-37.608 5.648-.01 4.749 22.134zM183.997 7.574l9.283-.016c4.039-.005 6.192 2.124 6.203 6.39l.022 11.203c.01 4.27-2.003 6.405-6.042 6.41l-4.173.006.027 13.605-5.11.01-.075-37.608h-.135zm5.013 19.461 3.231-.005c1.346 0 2.019-.673 2.014-2.135l-.022-10.537c-.005-1.468-.813-2.13-2.293-2.13l-2.962.006.032 14.801zM204.787 45.14l-.076-37.609 5.11-.01.076 37.608-5.11.011zM225.969 7.494c3.904-.005 5.789 2.124 5.799 6.39l.016 9.335c.006 3.336-.931 5.337-2.945 6.271l3.527 15.597-4.841.01-3.392-15.196-3.096.006.027 15.201-5.11.01-.075-37.608 10.09-.016zm-4.808 18.143 3.365-.006c1.481-.005 2.283-.94 2.283-2.674l-.016-8.134c-.005-1.869-.813-2.664-2.294-2.664l-3.365.005.027 13.473zM237.481 45.076l-.075-37.609 12.513-.021.011 4.537-7.533.016.022 11.47 6.59-.01.011 4.537-6.591.01.027 12.538 7.533-.015.011 4.536-12.519.011z" fill="#fff" fill-opacity=".85"/></svg>