<svg width="63" height="49" viewBox="0 0 63 49" fill="none" xmlns="http://www.w3.org/2000/svg">
<path d="M7.78939 36.4847C5.86026 35.7184 4.44557 33.9303 2.77366 30.865C7.40356 28.1828 12.4193 29.7155 15.7631 35.4629M5.85825 23.7126C3.80052 22.3077 2.38583 19.7533 2 15.1553C7.53016 14.7721 11.6456 18.4761 12.1601 25.1176M7.14169 11.3237C5.85561 9.28012 5.34117 6.34253 6.75587 2C12.0288 3.66038 14.4724 8.64151 12.5432 14.8999M55.1173 36.4847C57.0464 35.7184 58.4611 33.9303 60.133 30.865C55.5031 28.1828 50.4874 29.7155 47.1436 35.4629M57.0424 23.7126C59.1001 22.3077 60.5148 19.7533 60.9006 15.1553C55.3705 14.7721 51.255 18.4761 50.7406 25.1176M55.7632 11.3237C57.1779 9.28012 57.5637 6.34253 56.149 2C50.876 3.66038 48.4325 8.64151 50.3616 14.8999M22.1955 44.0203C18.9803 47.0856 14.0932 49.2568 8.04861 42.8708C12.0355 39.1668 17.6942 39.2946 22.1955 44.0203ZM40.7131 44.0203C43.9283 47.0856 48.8155 49.2568 54.8601 42.8708C50.8732 39.1668 45.2144 39.2946 40.7131 44.0203Z" stroke="url(#paint0_linear_715_3107)" stroke-width="3" stroke-miterlimit="10"/>
<defs>
<linearGradient id="paint0_linear_715_3107" x1="2" y1="24.5" x2="60.9006" y2="24.5" gradientUnits="userSpaceOnUse">
<stop stop-color="#FF9000"/>
<stop offset="1" stop-color="#FFD33A"/>
</linearGradient>
</defs>
</svg>
