<svg width="49" height="49" viewBox="0 0 49 49" fill="none" xmlns="http://www.w3.org/2000/svg">
<path d="M26.6631 37.6516L20.2419 44.0285C16.2525 47.9905 9.78271 47.9905 5.79324 44.0285L4.99211 43.2329C1.00263 39.271 1.00263 32.8458 4.99211 28.8839L15.427 18.5209C18.9755 14.9969 24.725 14.9969 28.2694 18.5209L30.6769 20.9117M26.6631 23.3026L25.862 22.507C23.6447 20.305 20.0518 20.305 17.8345 22.507L8.60125 31.6725C6.16143 34.0955 6.16143 38.0213 8.60125 40.4403C11.0411 42.8632 14.9941 42.8632 17.4299 40.4403L21.8442 36.0564M22.6494 11.3484L29.0706 4.97147C33.06 1.00951 39.5298 1.00951 43.5193 4.97147L44.3204 5.76708C48.3099 9.72904 48.3099 16.1542 44.3204 20.1161L33.8855 30.4791C30.337 34.0031 24.5875 34.0031 21.0431 30.4791L18.6356 28.0883M22.6494 25.6974L23.4505 26.493C25.6678 28.695 29.2607 28.695 31.478 26.493L40.7072 17.3275C43.147 14.9045 43.147 10.9787 40.7072 8.55974C38.2674 6.13675 34.3143 6.13675 31.8786 8.55974L27.4643 12.9396" stroke="url(#paint0_linear_715_3114)" stroke-width="3" stroke-miterlimit="10" stroke-linejoin="round"/>
<defs>
<linearGradient id="paint0_linear_715_3114" x1="2" y1="24.5" x2="47.3125" y2="24.5" gradientUnits="userSpaceOnUse">
<stop stop-color="#FF9000"/>
<stop offset="1" stop-color="#FFD33A"/>
</linearGradient>
</defs>
</svg>
