<svg width="40" height="49" viewBox="0 0 40 49" fill="none" xmlns="http://www.w3.org/2000/svg">
<path d="M20.1993 30.7076C26.2228 30.7076 31.1059 25.8205 31.1059 19.7918C31.1059 13.7632 26.2228 8.87604 20.1993 8.87604C14.1758 8.87604 9.29271 13.7632 9.29271 19.7918C9.29271 25.8205 14.1758 30.7076 20.1993 30.7076Z" stroke="url(#paint0_linear_715_3121)" stroke-width="3" stroke-miterlimit="10" stroke-linejoin="round"/>
<path d="M20.1993 47C20.1993 47 38.3986 30.7499 38.3986 20.2147C38.3986 10.1543 30.2511 2 20.1993 2C10.1474 2 2 10.1543 2 20.2147C2 30.7499 20.1993 47 20.1993 47Z" stroke="url(#paint1_linear_715_3121)" stroke-width="3" stroke-miterlimit="10" stroke-linejoin="round"/>
<defs>
<linearGradient id="paint0_linear_715_3121" x1="2" y1="24.5" x2="38.3986" y2="24.5" gradientUnits="userSpaceOnUse">
<stop stop-color="#FF9000"/>
<stop offset="1" stop-color="#FFD33A"/>
</linearGradient>
<linearGradient id="paint1_linear_715_3121" x1="2" y1="24.5" x2="38.3986" y2="24.5" gradientUnits="userSpaceOnUse">
<stop stop-color="#FF9000"/>
<stop offset="1" stop-color="#FFD33A"/>
</linearGradient>
</defs>
</svg>
