<svg width="49" height="47" viewBox="0 0 49 47" fill="none" xmlns="http://www.w3.org/2000/svg">
<path d="M2 34.6775V27.7476C2 22.8862 6.04847 18.9343 11.0386 18.9343H15.0066" stroke="url(#paint0_linear_715_3175)" stroke-width="3" stroke-miterlimit="10"/>
<path d="M10.7966 12.6081C13.7988 12.6081 16.2294 10.2338 16.2294 7.30406C16.2294 4.37435 13.7988 2 10.7966 2C7.79446 2 5.36377 4.37435 5.36377 7.30406C5.36377 10.2338 7.79446 12.6081 10.7966 12.6081Z" stroke="url(#paint1_linear_715_3175)" stroke-width="3" stroke-miterlimit="10"/>
<path d="M21.1558 35.4581V28.5282C21.1558 23.6669 25.2042 19.715 30.1944 19.715H34.1624" stroke="url(#paint2_linear_715_3175)" stroke-width="3" stroke-miterlimit="10"/>
<path d="M28.4641 12.6081C31.4662 12.6081 33.8969 10.2338 33.8969 7.30406C33.8969 4.37435 31.4662 2 28.4641 2C25.4619 2 23.0312 4.37435 23.0312 7.30406C23.0312 10.2338 25.4619 12.6081 28.4641 12.6081Z" stroke="url(#paint3_linear_715_3175)" stroke-width="3" stroke-miterlimit="10"/>
<path d="M39.6514 30.5406L40.5931 31.1201L42.066 32.0296L42.9513 32.5769L43.3377 33.5588L43.9735 35.1766L44.384 36.2229L44.1345 37.1565L43.6757 38.879L43.402 39.9253L42.5972 40.6014L41.2611 41.7282L40.4643 42.3962L39.4019 42.4606L37.6795 42.5652L36.6009 42.6296L35.7236 42.0662L34.2507 41.1165L33.3734 40.5531L32.963 39.555L32.2949 37.9373L31.9166 37.0278L32.1903 35.9332L32.6088 34.251L32.8664 33.2369L33.6632 32.5849L35.0315 31.4581L35.8846 30.7579L36.8826 30.7015L38.6372 30.5969L39.6514 30.5325M39.6836 26.146L38.4924 28.1823L36.7378 28.2869L35.2971 26.4277L33.2608 27.2326L33.5103 29.5828L32.142 30.7096L29.8964 30.0415L28.7052 31.9008L30.2828 33.6554L29.8642 35.3376L27.6187 36.1424L27.7555 38.3236L30.0735 38.8468L30.7415 40.4645L29.3733 42.3962L30.814 44.1186L32.9549 43.1367L34.4278 44.0864L34.5002 46.4366L36.6412 47L37.8324 44.9637L39.5548 44.8591L40.9955 46.7183L43.0721 45.9135L42.8225 43.5633L44.1586 42.4365L46.4444 43.1045L47.6034 41.2453L46.0259 39.4907L46.4847 37.7682L48.6981 36.9956L48.5612 34.7822L46.2432 34.2912L45.6074 32.6734L46.9435 30.7096L45.5349 29.0274L43.3538 29.9772L41.8809 29.0677L41.8084 26.6772L39.6997 26.154L39.6836 26.146Z" fill="url(#paint4_linear_715_3175)"/>
<defs>
<linearGradient id="paint0_linear_715_3175" x1="2" y1="26.8059" x2="15.0066" y2="26.8059" gradientUnits="userSpaceOnUse">
<stop stop-color="#FF9000"/>
<stop offset="1" stop-color="#FFD33A"/>
</linearGradient>
<linearGradient id="paint1_linear_715_3175" x1="5.36377" y1="7.30406" x2="16.2294" y2="7.30406" gradientUnits="userSpaceOnUse">
<stop stop-color="#FF9000"/>
<stop offset="1" stop-color="#FFD33A"/>
</linearGradient>
<linearGradient id="paint2_linear_715_3175" x1="21.1558" y1="27.5865" x2="34.1624" y2="27.5865" gradientUnits="userSpaceOnUse">
<stop stop-color="#FF9000"/>
<stop offset="1" stop-color="#FFD33A"/>
</linearGradient>
<linearGradient id="paint3_linear_715_3175" x1="23.0312" y1="7.30406" x2="33.8969" y2="7.30406" gradientUnits="userSpaceOnUse">
<stop stop-color="#FF9000"/>
<stop offset="1" stop-color="#FFD33A"/>
</linearGradient>
<linearGradient id="paint4_linear_715_3175" x1="27.6187" y1="36.573" x2="48.6981" y2="36.573" gradientUnits="userSpaceOnUse">
<stop stop-color="#FF9000"/>
<stop offset="1" stop-color="#FFD33A"/>
</linearGradient>
</defs>
</svg>
