<svg width="49" height="49" viewBox="0 0 49 49" fill="none" xmlns="http://www.w3.org/2000/svg">
<path d="M21.1612 26.7138C21.1612 27.9454 22.1576 28.9437 23.3871 28.9437H25.9022C26.971 28.9437 27.8388 28.0742 27.8388 27.0036V26.9955C27.8388 26.1623 27.3045 25.4177 26.5129 25.1561L22.483 23.8117C21.6915 23.5461 21.1571 22.8055 21.1571 21.9723V21.9642C21.1571 20.8936 22.025 20.0241 23.0937 20.0241H25.6089C26.8384 20.0241 27.8348 21.0224 27.8348 22.254M24.5 20.0241V16.6793M24.5 28.9437V32.2885M36.7424 24.5C36.7424 31.2623 31.2613 36.7442 24.5 36.7442C17.7387 36.7442 12.2576 31.2623 12.2576 24.5C12.2576 17.7377 17.7387 12.2558 24.5 12.2558C31.2613 12.2558 36.7424 17.7377 36.7424 24.5ZM47 24.5C47 36.9264 36.9264 47 24.5 47C12.0736 47 2 36.9264 2 24.5C2 12.0736 12.0736 2 24.5 2C36.9264 2 47 12.0736 47 24.5Z" stroke="url(#paint0_linear_715_3135)" stroke-width="3" stroke-miterlimit="10" stroke-linejoin="round"/>
<defs>
<linearGradient id="paint0_linear_715_3135" x1="2" y1="24.5" x2="47" y2="24.5" gradientUnits="userSpaceOnUse">
<stop stop-color="#FF9000"/>
<stop offset="1" stop-color="#FFD33A"/>
</linearGradient>
</defs>
</svg>
