<svg width="55" height="49" viewBox="0 0 55 49" fill="none" xmlns="http://www.w3.org/2000/svg">
<path d="M9.02199 39.0287H2V2H53.167V39.0287H46.724M2 11.1629H53.167M34.0467 42.2401L34.39 45.4919L31.522 46.6095L29.5292 44.0377L27.1459 44.1858L25.4964 47L22.5341 46.2258L22.4399 42.974L20.3999 41.6611L17.4376 43.0211L15.4448 40.6445L17.3366 37.9717L16.4143 35.7365L13.2096 35.0094L13.0144 32L16.1248 30.8824L16.7105 28.553L14.5224 26.1225L16.1719 23.5507L19.2823 24.4731L21.1741 22.9179L20.8375 19.6661L23.6517 18.5485L25.6445 21.1203L28.075 20.9722L29.7244 18.158L32.6396 18.8851L32.7338 22.184L34.7738 23.443L37.7832 22.1302L39.7289 24.4596L37.8842 27.1795L38.7594 29.4147L41.9641 30.0947L42.1593 33.1513L39.096 34.2217L38.4632 36.5983L40.6513 39.0287L39.0489 41.6005L35.8914 40.6782L34.0467 42.2334V42.2401ZM34.6055 32.579C34.6055 36.4571 31.4616 39.601 27.5835 39.601C23.7053 39.601 20.5615 36.4571 20.5615 32.579C20.5615 28.7009 23.7053 25.557 27.5835 25.557C31.4616 25.557 34.6055 28.7009 34.6055 32.579Z" stroke="url(#paint0_linear_715_3142)" stroke-width="3" stroke-miterlimit="10"/>
<defs>
<linearGradient id="paint0_linear_715_3142" x1="2" y1="24.5" x2="53.167" y2="24.5" gradientUnits="userSpaceOnUse">
<stop stop-color="#FF9000"/>
<stop offset="1" stop-color="#FFD33A"/>
</linearGradient>
</defs>
</svg>
