<svg width="1329" height="60" viewBox="0 0 1329 60" fill="none" xmlns="http://www.w3.org/2000/svg">
<path d="M22.81 22.26L31.54 14.83L40.46 22.23L43.42 24.74H43.43L43.41 13.33L31.51 0L19.68 13.37L19.7 24.79L22.81 22.26Z" fill="white"/>
<path d="M51.43 22.2002L51.47 44.3002L43.45 40.1602V33.4902L31.57 25.9502V25.9602L19.72 33.5402L19.73 40.2102L11.88 44.3802L11.84 22.2802L0 35.6502L0.05 59.3802L31.61 47.4502L43.48 51.8802L51.49 54.8302L63.37 59.2602L63.32 35.5302L51.43 22.2002Z" fill="white"/>
<path d="M107.14 22.26L115.88 14.83L124.79 22.23L127.76 24.74L127.74 13.33L115.85 0L104.01 13.37L104.04 24.79L107.14 22.26Z" fill="white"/>
<path d="M135.76 22.2002L135.81 44.3002L127.79 40.1602L127.78 33.4902L115.91 25.9502V25.9602H115.9L104.05 33.5402L104.07 40.2102L96.21 44.3802L96.17 22.2802L84.33 35.6502L84.38 59.3802L115.94 47.4502L127.81 51.8802L135.82 54.8302L147.7 59.2602L147.65 35.5302L135.76 22.2002Z" fill="white"/>
<path d="M191.47 22.26L200.21 14.83L209.12 22.23L212.09 24.74H212.1L212.07 13.33L200.18 0L188.35 13.37L188.37 24.79L191.47 22.26Z" fill="white"/>
<path d="M220.1 22.2002L220.14 44.3002L212.12 40.1602L212.11 33.4902L200.24 25.9502V25.9602H200.23L188.38 33.5402L188.4 40.2102L180.55 44.3802L180.51 22.2802L168.67 35.6502L168.71 59.3802L200.27 47.4502L212.14 51.8802L220.16 54.8302L232.03 59.2602L231.98 35.5302L220.1 22.2002Z" fill="white"/>
<path d="M275.81 22.26L284.54 14.83L293.46 22.23L296.42 24.74H296.43L296.41 13.33L284.51 0L272.68 13.37L272.7 24.79L275.81 22.26Z" fill="white"/>
<path d="M304.43 22.2002L304.47 44.3002L296.45 40.1602V33.4902L284.57 25.9502V25.9602L272.71 33.5402L272.73 40.2102L264.88 44.3802L264.84 22.2802L253 35.6502L253.05 59.3802L284.61 47.4502L296.48 51.8802L304.49 54.8302L316.36 59.2602L316.32 35.5302L304.43 22.2002Z" fill="white"/>
<path d="M360.14 22.26L368.88 14.83L377.79 22.23L380.76 24.74L380.74 13.33L368.85 0L357.01 13.37L357.04 24.79L360.14 22.26Z" fill="white"/>
<path d="M388.76 22.2002L388.8 44.3002L380.79 40.1602L380.78 33.4902L368.9 25.9502V25.9602L357.05 33.5402L357.07 40.2102L349.21 44.3802L349.17 22.2802L337.33 35.6502L337.38 59.3802L368.94 47.4502L380.81 51.8802L388.82 54.8302L400.7 59.2602L400.65 35.5302L388.76 22.2002Z" fill="white"/>
<path d="M444.47 22.26L453.21 14.83L462.12 22.23L465.09 24.74H465.1L465.07 13.33L453.18 0L441.34 13.37L441.37 24.79L444.47 22.26Z" fill="white"/>
<path d="M473.1 22.2002L473.14 44.3002L465.12 40.1602L465.11 33.4902L453.24 25.9502V25.9602H453.23L441.38 33.5402L441.4 40.2102L433.55 44.3802L433.5 22.2802L421.66 35.6502L421.71 59.3802L453.27 47.4502L465.14 51.8802L473.15 54.8302L485.03 59.2602L484.98 35.5302L473.1 22.2002Z" fill="white"/>
<path d="M528.81 22.26L537.54 14.83L546.45 22.23L549.42 24.74H549.43L549.4 13.33L537.51 0L525.68 13.37L525.7 24.79L528.81 22.26Z" fill="white"/>
<path d="M557.43 22.2002L557.47 44.3002L549.45 40.1602V33.4902L537.57 25.9502V25.9602H537.56L525.71 33.5402L525.73 40.2102L517.88 44.3802L517.84 22.2802L506 35.6502L506.05 59.3802L537.61 47.4502L549.48 51.8802L557.49 54.8302L569.36 59.2602L569.32 35.5302L557.43 22.2002Z" fill="white"/>
<path d="M613.14 22.26L621.87 14.83L630.79 22.23L633.76 24.74L633.74 13.33L621.84 0L610.01 13.37L610.03 24.79L613.14 22.26Z" fill="white"/>
<path d="M641.76 22.2002L641.8 44.3002L633.79 40.1602L633.78 33.4902L621.9 25.9502V25.9602L610.05 33.5402L610.06 40.2102L602.21 44.3802L602.17 22.2802L590.33 35.6502L590.38 59.3802L621.94 47.4502L633.81 51.8802L641.82 54.8302L653.7 59.2602L653.65 35.5302L641.76 22.2002Z" fill="white"/>
<path d="M697.47 22.26L706.21 14.83L715.12 22.23L718.09 24.74L718.07 13.33L706.18 0L694.34 13.37L694.37 24.79L697.47 22.26Z" fill="white"/>
<path d="M726.09 22.2002L726.14 44.3002L718.12 40.1602L718.11 33.4902L706.24 25.9502V25.9602H706.23L694.38 33.5402L694.4 40.2102L686.54 44.3802L686.5 22.2802L674.66 35.6502L674.71 59.3802L706.27 47.4502L718.14 51.8802L726.15 54.8302L738.03 59.2602L737.98 35.5302L726.09 22.2002Z" fill="white"/>
<path d="M781.8 22.26L790.54 14.83L799.45 22.23L802.42 24.74H802.43L802.4 13.33L790.51 0L778.68 13.37L778.7 24.79L781.8 22.26Z" fill="white"/>
<path d="M810.43 22.2002L810.47 44.3002L802.45 40.1602L802.44 33.4902L790.57 25.9502V25.9602H790.56L778.71 33.5402L778.73 40.2102L770.88 44.3802L770.84 22.2802L759 35.6502L759.04 59.3802L790.61 47.4502L802.47 51.8802L810.49 54.8302L822.36 59.2602L822.31 35.5302L810.43 22.2002Z" fill="white"/>
<path d="M866.14 22.26L874.87 14.83L883.79 22.23L886.75 24.74H886.76L886.74 13.33L874.84 0L863.01 13.37L863.03 24.79L866.14 22.26Z" fill="white"/>
<path d="M894.76 22.2002L894.8 44.3002L886.78 40.1602V33.4902L874.9 25.9502V25.9602L863.04 33.5402L863.06 40.2102L855.21 44.3802L855.17 22.2802L843.33 35.6502L843.38 59.3802L874.94 47.4502L886.81 51.8802L894.82 54.8302L906.69 59.2602L906.65 35.5302L894.76 22.2002Z" fill="white"/>
<path d="M950.47 22.26L959.21 14.83L968.12 22.23L971.09 24.74L971.07 13.33L959.18 0L947.34 13.37L947.37 24.79L950.47 22.26Z" fill="white"/>
<path d="M979.09 22.2002L979.13 44.3002L971.12 40.1602L971.11 33.4902L959.24 25.9502V25.9602H959.23L947.38 33.5402L947.4 40.2102L939.54 44.3802L939.5 22.2802L927.66 35.6502L927.71 59.3802L959.27 47.4502L971.14 51.8802L979.15 54.8302L991.03 59.2602L990.98 35.5302L979.09 22.2002Z" fill="white"/>
<path d="M1034.8 22.26L1043.54 14.83L1052.45 22.23L1055.42 24.74H1055.43L1055.4 13.33L1043.51 0L1031.67 13.37L1031.7 24.79L1034.8 22.26Z" fill="white"/>
<path d="M1063.43 22.2002L1063.47 44.3002L1055.45 40.1602L1055.44 33.4902L1043.57 25.9502V25.9602H1043.56L1031.71 33.5402L1031.73 40.2102L1023.88 44.3802L1023.84 22.2802L1012 35.6502L1012.04 59.3802L1043.6 47.4502L1055.47 51.8802L1063.49 54.8302L1075.36 59.2602L1075.31 35.5302L1063.43 22.2002Z" fill="white"/>
<path d="M1119.14 22.26L1127.87 14.83L1136.79 22.23L1139.75 24.74H1139.76L1139.73 13.33L1127.84 0L1116.01 13.37L1116.03 24.79L1119.14 22.26Z" fill="white"/>
<path d="M1147.76 22.2002L1147.8 44.3002L1139.78 40.1602V33.4902L1127.9 25.9502V25.9602L1116.04 33.5402L1116.06 40.2102L1108.21 44.3802L1108.17 22.2802L1096.33 35.6502L1096.38 59.3802L1127.94 47.4502L1139.81 51.8802L1147.82 54.8302L1159.69 59.2602L1159.65 35.5302L1147.76 22.2002Z" fill="white"/>
<path d="M1203.47 22.26L1212.2 14.83L1221.12 22.23L1224.09 24.74L1224.07 13.33L1212.17 0L1200.34 13.37L1200.36 24.79L1203.47 22.26Z" fill="white"/>
<path d="M1232.09 22.2002L1232.13 44.3002L1224.12 40.1602L1224.11 33.4902L1212.23 25.9502V25.9602L1200.38 33.5402L1200.39 40.2102L1192.54 44.3802L1192.5 22.2802L1180.66 35.6502L1180.71 59.3802L1212.27 47.4502L1224.14 51.8802L1232.15 54.8302L1244.03 59.2602L1243.98 35.5302L1232.09 22.2002Z" fill="white"/>
<path d="M1287.8 22.26L1296.54 14.83L1305.45 22.23L1308.42 24.74L1308.4 13.33L1296.51 0L1284.67 13.37L1284.7 24.79L1287.8 22.26Z" fill="white"/>
<path d="M1328.31 35.5302L1316.42 22.2002L1316.47 44.3002L1308.45 40.1602L1308.44 33.4902L1296.57 25.9502V25.9602H1296.56L1284.71 33.5402L1284.73 40.2102L1276.88 44.3802L1276.83 22.2802L1264.99 35.6502L1265.04 59.3802L1296.6 47.4502L1308.47 51.8802L1316.48 54.8302L1328.36 59.2602L1328.31 35.5302Z" fill="white"/>
</svg>
