<svg width="1329" height="62" viewBox="0 0 1329 62" fill="none" xmlns="http://www.w3.org/2000/svg">
<path d="M23.31 23.26L32.04 15.83L40.96 23.23L43.92 25.74H43.93L43.91 14.33L32.01 1L20.18 14.37L20.2 25.79L23.31 23.26Z" stroke="url(#paint0_linear_157_10762)" stroke-miterlimit="10"/>
<path d="M51.93 23.2L51.97 45.3L43.95 41.16V34.49L32.07 26.95V26.96L20.22 34.54L20.23 41.21L12.38 45.38L12.34 23.28L0.5 36.65L0.55 60.38L32.11 48.45L43.98 52.88L51.99 55.83L63.87 60.26L63.82 36.53L51.93 23.2Z" stroke="url(#paint1_linear_157_10762)" stroke-miterlimit="10"/>
<path d="M107.64 23.26L116.38 15.83L125.29 23.23L128.26 25.74L128.24 14.33L116.35 1L104.51 14.37L104.54 25.79L107.64 23.26Z" stroke="url(#paint2_linear_157_10762)" stroke-miterlimit="10"/>
<path d="M136.26 23.2L136.31 45.3L128.29 41.16L128.28 34.49L116.41 26.95V26.96H116.4L104.55 34.54L104.57 41.21L96.71 45.38L96.67 23.28L84.83 36.65L84.88 60.38L116.44 48.45L128.31 52.88L136.32 55.83L148.2 60.26L148.15 36.53L136.26 23.2Z" stroke="url(#paint3_linear_157_10762)" stroke-miterlimit="10"/>
<path d="M191.97 23.26L200.71 15.83L209.62 23.23L212.59 25.74H212.6L212.57 14.33L200.68 1L188.85 14.37L188.87 25.79L191.97 23.26Z" stroke="url(#paint4_linear_157_10762)" stroke-miterlimit="10"/>
<path d="M220.6 23.2L220.64 45.3L212.62 41.16L212.61 34.49L200.74 26.95V26.96H200.73L188.88 34.54L188.9 41.21L181.05 45.38L181.01 23.28L169.17 36.65L169.21 60.38L200.77 48.45L212.64 52.88L220.66 55.83L232.53 60.26L232.48 36.53L220.6 23.2Z" stroke="url(#paint5_linear_157_10762)" stroke-miterlimit="10"/>
<path d="M276.31 23.26L285.04 15.83L293.96 23.23L296.92 25.74H296.93L296.91 14.33L285.01 1L273.18 14.37L273.2 25.79L276.31 23.26Z" stroke="url(#paint6_linear_157_10762)" stroke-miterlimit="10"/>
<path d="M304.93 23.2L304.97 45.3L296.95 41.16V34.49L285.07 26.95V26.96L273.21 34.54L273.23 41.21L265.38 45.38L265.34 23.28L253.5 36.65L253.55 60.38L285.11 48.45L296.98 52.88L304.99 55.83L316.86 60.26L316.82 36.53L304.93 23.2Z" stroke="url(#paint7_linear_157_10762)" stroke-miterlimit="10"/>
<path d="M360.64 23.26L369.38 15.83L378.29 23.23L381.26 25.74L381.24 14.33L369.35 1L357.51 14.37L357.54 25.79L360.64 23.26Z" stroke="url(#paint8_linear_157_10762)" stroke-miterlimit="10"/>
<path d="M389.26 23.2L389.3 45.3L381.29 41.16L381.28 34.49L369.4 26.95V26.96L357.55 34.54L357.57 41.21L349.71 45.38L349.67 23.28L337.83 36.65L337.88 60.38L369.44 48.45L381.31 52.88L389.32 55.83L401.2 60.26L401.15 36.53L389.26 23.2Z" stroke="url(#paint9_linear_157_10762)" stroke-miterlimit="10"/>
<path d="M444.97 23.26L453.71 15.83L462.62 23.23L465.59 25.74H465.6L465.57 14.33L453.68 1L441.84 14.37L441.87 25.79L444.97 23.26Z" stroke="url(#paint10_linear_157_10762)" stroke-miterlimit="10"/>
<path d="M473.6 23.2L473.64 45.3L465.62 41.16L465.61 34.49L453.74 26.95V26.96H453.73L441.88 34.54L441.9 41.21L434.05 45.38L434 23.28L422.16 36.65L422.21 60.38L453.77 48.45L465.64 52.88L473.65 55.83L485.53 60.26L485.48 36.53L473.6 23.2Z" stroke="url(#paint11_linear_157_10762)" stroke-miterlimit="10"/>
<path d="M529.31 23.26L538.04 15.83L546.95 23.23L549.92 25.74H549.93L549.9 14.33L538.01 1L526.18 14.37L526.2 25.79L529.31 23.26Z" stroke="url(#paint12_linear_157_10762)" stroke-miterlimit="10"/>
<path d="M557.93 23.2L557.97 45.3L549.95 41.16V34.49L538.07 26.95V26.96H538.06L526.21 34.54L526.23 41.21L518.38 45.38L518.34 23.28L506.5 36.65L506.55 60.38L538.11 48.45L549.98 52.88L557.99 55.83L569.86 60.26L569.82 36.53L557.93 23.2Z" stroke="url(#paint13_linear_157_10762)" stroke-miterlimit="10"/>
<path d="M613.64 23.26L622.37 15.83L631.29 23.23L634.26 25.74L634.24 14.33L622.34 1L610.51 14.37L610.53 25.79L613.64 23.26Z" stroke="url(#paint14_linear_157_10762)" stroke-miterlimit="10"/>
<path d="M642.26 23.2L642.3 45.3L634.29 41.16L634.28 34.49L622.4 26.95V26.96L610.55 34.54L610.56 41.21L602.71 45.38L602.67 23.28L590.83 36.65L590.88 60.38L622.44 48.45L634.31 52.88L642.32 55.83L654.2 60.26L654.15 36.53L642.26 23.2Z" stroke="url(#paint15_linear_157_10762)" stroke-miterlimit="10"/>
<path d="M697.97 23.26L706.71 15.83L715.62 23.23L718.59 25.74L718.57 14.33L706.68 1L694.84 14.37L694.87 25.79L697.97 23.26Z" stroke="url(#paint16_linear_157_10762)" stroke-miterlimit="10"/>
<path d="M726.59 23.2L726.64 45.3L718.62 41.16L718.61 34.49L706.74 26.95V26.96H706.73L694.88 34.54L694.9 41.21L687.04 45.38L687 23.28L675.16 36.65L675.21 60.38L706.77 48.45L718.64 52.88L726.65 55.83L738.53 60.26L738.48 36.53L726.59 23.2Z" stroke="url(#paint17_linear_157_10762)" stroke-miterlimit="10"/>
<path d="M782.3 23.26L791.04 15.83L799.95 23.23L802.92 25.74H802.93L802.9 14.33L791.01 1L779.18 14.37L779.2 25.79L782.3 23.26Z" stroke="url(#paint18_linear_157_10762)" stroke-miterlimit="10"/>
<path d="M810.93 23.2L810.97 45.3L802.95 41.16L802.94 34.49L791.07 26.95V26.96H791.06L779.21 34.54L779.23 41.21L771.38 45.38L771.34 23.28L759.5 36.65L759.54 60.38L791.11 48.45L802.97 52.88L810.99 55.83L822.86 60.26L822.81 36.53L810.93 23.2Z" stroke="url(#paint19_linear_157_10762)" stroke-miterlimit="10"/>
<path d="M866.64 23.26L875.37 15.83L884.29 23.23L887.25 25.74H887.26L887.24 14.33L875.34 1L863.51 14.37L863.53 25.79L866.64 23.26Z" stroke="url(#paint20_linear_157_10762)" stroke-miterlimit="10"/>
<path d="M895.26 23.2L895.3 45.3L887.28 41.16V34.49L875.4 26.95V26.96L863.54 34.54L863.56 41.21L855.71 45.38L855.67 23.28L843.83 36.65L843.88 60.38L875.44 48.45L887.31 52.88L895.32 55.83L907.19 60.26L907.15 36.53L895.26 23.2Z" stroke="url(#paint21_linear_157_10762)" stroke-miterlimit="10"/>
<path d="M950.97 23.26L959.71 15.83L968.62 23.23L971.59 25.74L971.57 14.33L959.68 1L947.84 14.37L947.87 25.79L950.97 23.26Z" stroke="url(#paint22_linear_157_10762)" stroke-miterlimit="10"/>
<path d="M979.59 23.2L979.63 45.3L971.62 41.16L971.61 34.49L959.74 26.95V26.96H959.73L947.88 34.54L947.9 41.21L940.04 45.38L940 23.28L928.16 36.65L928.21 60.38L959.77 48.45L971.64 52.88L979.65 55.83L991.53 60.26L991.48 36.53L979.59 23.2Z" stroke="url(#paint23_linear_157_10762)" stroke-miterlimit="10"/>
<path d="M1035.3 23.26L1044.04 15.83L1052.95 23.23L1055.92 25.74H1055.93L1055.9 14.33L1044.01 1L1032.17 14.37L1032.2 25.79L1035.3 23.26Z" stroke="url(#paint24_linear_157_10762)" stroke-miterlimit="10"/>
<path d="M1063.93 23.2L1063.97 45.3L1055.95 41.16L1055.94 34.49L1044.07 26.95V26.96H1044.06L1032.21 34.54L1032.23 41.21L1024.38 45.38L1024.34 23.28L1012.5 36.65L1012.54 60.38L1044.1 48.45L1055.97 52.88L1063.99 55.83L1075.86 60.26L1075.81 36.53L1063.93 23.2Z" stroke="url(#paint25_linear_157_10762)" stroke-miterlimit="10"/>
<path d="M1119.64 23.26L1128.37 15.83L1137.29 23.23L1140.25 25.74H1140.26L1140.23 14.33L1128.34 1L1116.51 14.37L1116.53 25.79L1119.64 23.26Z" stroke="url(#paint26_linear_157_10762)" stroke-miterlimit="10"/>
<path d="M1148.26 23.2L1148.3 45.3L1140.28 41.16V34.49L1128.4 26.95V26.96L1116.54 34.54L1116.56 41.21L1108.71 45.38L1108.67 23.28L1096.83 36.65L1096.88 60.38L1128.44 48.45L1140.31 52.88L1148.32 55.83L1160.19 60.26L1160.15 36.53L1148.26 23.2Z" stroke="url(#paint27_linear_157_10762)" stroke-miterlimit="10"/>
<path d="M1203.97 23.26L1212.7 15.83L1221.62 23.23L1224.59 25.74L1224.57 14.33L1212.67 1L1200.84 14.37L1200.86 25.79L1203.97 23.26Z" stroke="url(#paint28_linear_157_10762)" stroke-miterlimit="10"/>
<path d="M1232.59 23.2L1232.63 45.3L1224.62 41.16L1224.61 34.49L1212.73 26.95V26.96L1200.88 34.54L1200.89 41.21L1193.04 45.38L1193 23.28L1181.16 36.65L1181.21 60.38L1212.77 48.45L1224.64 52.88L1232.65 55.83L1244.53 60.26L1244.48 36.53L1232.59 23.2Z" stroke="url(#paint29_linear_157_10762)" stroke-miterlimit="10"/>
<path d="M1288.3 23.26L1297.04 15.83L1305.95 23.23L1308.92 25.74L1308.9 14.33L1297.01 1L1285.17 14.37L1285.2 25.79L1288.3 23.26Z" stroke="url(#paint30_linear_157_10762)" stroke-miterlimit="10"/>
<path d="M1328.81 36.53L1316.92 23.2L1316.97 45.3L1308.95 41.16L1308.94 34.49L1297.07 26.95V26.96H1297.06L1285.21 34.54L1285.23 41.21L1277.38 45.38L1277.33 23.28L1265.49 36.65L1265.54 60.38L1297.1 48.45L1308.97 52.88L1316.98 55.83L1328.86 60.26L1328.81 36.53Z" stroke="url(#paint31_linear_157_10762)" stroke-miterlimit="10"/>
<defs>
<linearGradient id="paint0_linear_157_10762" x1="0.5" y1="30.69" x2="1328.86" y2="30.69" gradientUnits="userSpaceOnUse">
<stop stop-color="#FF9000"/>
<stop offset="1" stop-color="#FFD33A"/>
</linearGradient>
<linearGradient id="paint1_linear_157_10762" x1="0.5" y1="30.69" x2="1328.86" y2="30.69" gradientUnits="userSpaceOnUse">
<stop stop-color="#FF9000"/>
<stop offset="1" stop-color="#FFD33A"/>
</linearGradient>
<linearGradient id="paint2_linear_157_10762" x1="0.5" y1="30.69" x2="1328.86" y2="30.69" gradientUnits="userSpaceOnUse">
<stop stop-color="#FF9000"/>
<stop offset="1" stop-color="#FFD33A"/>
</linearGradient>
<linearGradient id="paint3_linear_157_10762" x1="0.5" y1="30.69" x2="1328.86" y2="30.69" gradientUnits="userSpaceOnUse">
<stop stop-color="#FF9000"/>
<stop offset="1" stop-color="#FFD33A"/>
</linearGradient>
<linearGradient id="paint4_linear_157_10762" x1="0.5" y1="30.69" x2="1328.86" y2="30.69" gradientUnits="userSpaceOnUse">
<stop stop-color="#FF9000"/>
<stop offset="1" stop-color="#FFD33A"/>
</linearGradient>
<linearGradient id="paint5_linear_157_10762" x1="0.5" y1="30.69" x2="1328.86" y2="30.69" gradientUnits="userSpaceOnUse">
<stop stop-color="#FF9000"/>
<stop offset="1" stop-color="#FFD33A"/>
</linearGradient>
<linearGradient id="paint6_linear_157_10762" x1="0.5" y1="30.69" x2="1328.86" y2="30.69" gradientUnits="userSpaceOnUse">
<stop stop-color="#FF9000"/>
<stop offset="1" stop-color="#FFD33A"/>
</linearGradient>
<linearGradient id="paint7_linear_157_10762" x1="0.5" y1="30.69" x2="1328.86" y2="30.69" gradientUnits="userSpaceOnUse">
<stop stop-color="#FF9000"/>
<stop offset="1" stop-color="#FFD33A"/>
</linearGradient>
<linearGradient id="paint8_linear_157_10762" x1="0.5" y1="30.69" x2="1328.86" y2="30.69" gradientUnits="userSpaceOnUse">
<stop stop-color="#FF9000"/>
<stop offset="1" stop-color="#FFD33A"/>
</linearGradient>
<linearGradient id="paint9_linear_157_10762" x1="0.5" y1="30.69" x2="1328.86" y2="30.69" gradientUnits="userSpaceOnUse">
<stop stop-color="#FF9000"/>
<stop offset="1" stop-color="#FFD33A"/>
</linearGradient>
<linearGradient id="paint10_linear_157_10762" x1="0.5" y1="30.69" x2="1328.86" y2="30.69" gradientUnits="userSpaceOnUse">
<stop stop-color="#FF9000"/>
<stop offset="1" stop-color="#FFD33A"/>
</linearGradient>
<linearGradient id="paint11_linear_157_10762" x1="0.5" y1="30.69" x2="1328.86" y2="30.69" gradientUnits="userSpaceOnUse">
<stop stop-color="#FF9000"/>
<stop offset="1" stop-color="#FFD33A"/>
</linearGradient>
<linearGradient id="paint12_linear_157_10762" x1="0.5" y1="30.69" x2="1328.86" y2="30.69" gradientUnits="userSpaceOnUse">
<stop stop-color="#FF9000"/>
<stop offset="1" stop-color="#FFD33A"/>
</linearGradient>
<linearGradient id="paint13_linear_157_10762" x1="0.5" y1="30.69" x2="1328.86" y2="30.69" gradientUnits="userSpaceOnUse">
<stop stop-color="#FF9000"/>
<stop offset="1" stop-color="#FFD33A"/>
</linearGradient>
<linearGradient id="paint14_linear_157_10762" x1="0.5" y1="30.69" x2="1328.86" y2="30.69" gradientUnits="userSpaceOnUse">
<stop stop-color="#FF9000"/>
<stop offset="1" stop-color="#FFD33A"/>
</linearGradient>
<linearGradient id="paint15_linear_157_10762" x1="0.5" y1="30.69" x2="1328.86" y2="30.69" gradientUnits="userSpaceOnUse">
<stop stop-color="#FF9000"/>
<stop offset="1" stop-color="#FFD33A"/>
</linearGradient>
<linearGradient id="paint16_linear_157_10762" x1="0.5" y1="30.69" x2="1328.86" y2="30.69" gradientUnits="userSpaceOnUse">
<stop stop-color="#FF9000"/>
<stop offset="1" stop-color="#FFD33A"/>
</linearGradient>
<linearGradient id="paint17_linear_157_10762" x1="0.5" y1="30.69" x2="1328.86" y2="30.69" gradientUnits="userSpaceOnUse">
<stop stop-color="#FF9000"/>
<stop offset="1" stop-color="#FFD33A"/>
</linearGradient>
<linearGradient id="paint18_linear_157_10762" x1="0.5" y1="30.69" x2="1328.86" y2="30.69" gradientUnits="userSpaceOnUse">
<stop stop-color="#FF9000"/>
<stop offset="1" stop-color="#FFD33A"/>
</linearGradient>
<linearGradient id="paint19_linear_157_10762" x1="0.5" y1="30.69" x2="1328.86" y2="30.69" gradientUnits="userSpaceOnUse">
<stop stop-color="#FF9000"/>
<stop offset="1" stop-color="#FFD33A"/>
</linearGradient>
<linearGradient id="paint20_linear_157_10762" x1="0.5" y1="30.69" x2="1328.86" y2="30.69" gradientUnits="userSpaceOnUse">
<stop stop-color="#FF9000"/>
<stop offset="1" stop-color="#FFD33A"/>
</linearGradient>
<linearGradient id="paint21_linear_157_10762" x1="0.5" y1="30.69" x2="1328.86" y2="30.69" gradientUnits="userSpaceOnUse">
<stop stop-color="#FF9000"/>
<stop offset="1" stop-color="#FFD33A"/>
</linearGradient>
<linearGradient id="paint22_linear_157_10762" x1="0.5" y1="30.69" x2="1328.86" y2="30.69" gradientUnits="userSpaceOnUse">
<stop stop-color="#FF9000"/>
<stop offset="1" stop-color="#FFD33A"/>
</linearGradient>
<linearGradient id="paint23_linear_157_10762" x1="0.5" y1="30.69" x2="1328.86" y2="30.69" gradientUnits="userSpaceOnUse">
<stop stop-color="#FF9000"/>
<stop offset="1" stop-color="#FFD33A"/>
</linearGradient>
<linearGradient id="paint24_linear_157_10762" x1="0.5" y1="30.69" x2="1328.86" y2="30.69" gradientUnits="userSpaceOnUse">
<stop stop-color="#FF9000"/>
<stop offset="1" stop-color="#FFD33A"/>
</linearGradient>
<linearGradient id="paint25_linear_157_10762" x1="0.5" y1="30.69" x2="1328.86" y2="30.69" gradientUnits="userSpaceOnUse">
<stop stop-color="#FF9000"/>
<stop offset="1" stop-color="#FFD33A"/>
</linearGradient>
<linearGradient id="paint26_linear_157_10762" x1="0.5" y1="30.69" x2="1328.86" y2="30.69" gradientUnits="userSpaceOnUse">
<stop stop-color="#FF9000"/>
<stop offset="1" stop-color="#FFD33A"/>
</linearGradient>
<linearGradient id="paint27_linear_157_10762" x1="0.5" y1="30.69" x2="1328.86" y2="30.69" gradientUnits="userSpaceOnUse">
<stop stop-color="#FF9000"/>
<stop offset="1" stop-color="#FFD33A"/>
</linearGradient>
<linearGradient id="paint28_linear_157_10762" x1="0.5" y1="30.69" x2="1328.86" y2="30.69" gradientUnits="userSpaceOnUse">
<stop stop-color="#FF9000"/>
<stop offset="1" stop-color="#FFD33A"/>
</linearGradient>
<linearGradient id="paint29_linear_157_10762" x1="0.5" y1="30.69" x2="1328.86" y2="30.69" gradientUnits="userSpaceOnUse">
<stop stop-color="#FF9000"/>
<stop offset="1" stop-color="#FFD33A"/>
</linearGradient>
<linearGradient id="paint30_linear_157_10762" x1="0.5" y1="30.69" x2="1328.86" y2="30.69" gradientUnits="userSpaceOnUse">
<stop stop-color="#FF9000"/>
<stop offset="1" stop-color="#FFD33A"/>
</linearGradient>
<linearGradient id="paint31_linear_157_10762" x1="0.5" y1="30.69" x2="1328.86" y2="30.69" gradientUnits="userSpaceOnUse">
<stop stop-color="#FF9000"/>
<stop offset="1" stop-color="#FFD33A"/>
</linearGradient>
</defs>
</svg>
